<svg aria-hidden="true" style="position: absolute; width: 0; height: 0; overflow: hidden;" version="1.1"
    xmlns="http://www.w3.org/2000/svg" xmlns:xlink="http://www.w3.org/1999/xlink">
    <defs>
        <symbol id="icon-cube" viewBox="0 0 29 32">
            <path
                d="M28.368 8.192l-0.224-0.4c-0.289-0.484-0.696-0.886-1.184-1.168l-10.736-6.192c-0.486-0.282-1.038-0.431-1.6-0.432h-0.464c-0.562 0.001-1.114 0.15-1.6 0.432l-10.736 6.208c-0.485 0.28-0.888 0.683-1.168 1.168l-0.224 0.4c-0.282 0.486-0.431 1.038-0.432 1.6v12.4c0.001 0.562 0.15 1.114 0.432 1.6l0.224 0.4c0.288 0.479 0.689 0.88 1.168 1.168l10.752 6.192c0.484 0.288 1.037 0.437 1.6 0.432h0.448c0.562-0.001 1.114-0.15 1.6-0.432l10.736-6.208c0.49-0.274 0.894-0.678 1.168-1.168l0.24-0.4c0.279-0.488 0.427-1.038 0.432-1.6v-12.4c-0.001-0.562-0.15-1.114-0.432-1.6zM14.16 3.2h0.464l9.376 5.408-9.6 5.536-9.6-5.536 9.36-5.408zM16 28l9.36-5.408 0.24-0.4v-10.816l-9.6 5.552v11.072z">
            </path>
        </symbol>
        <symbol id="icon-coffee" viewBox="0 0 32 32">
            <path
                d="M31.571 14.386c-0.812-8.302-8.211-14.367-16.511-13.533-8.269 0.83-14.307 8.196-13.498 16.467s8.158 14.328 16.432 13.542c8.304-0.79 14.388-8.174 13.577-16.476zM20.333 4.333c0.184-0 0.322 0.037 0.493 0.083l0.037 0.010c0.067 0.336-0 0.492-0.176 0.778-0.308 0.501-0.65 0.98-0.992 1.459-0.604 0.846-1.209 1.693-1.623 2.657-0.898 2.090-0.689 4.529-0.477 6.992 0.185 2.156 0.372 4.332-0.181 6.311-0.665 2.381-2.333 3.939-4.422 5.1-0.116 0.019-0.244 0.010-0.366 0-0.026-0.002-0.051-0.004-0.076-0.006-0.016-0.001-0.032-0.002-0.047-0.003l-0.020-0.038c-0.119-0.226-0.126-0.24-0.040-0.498 0.112-0.334 0.334-0.676 0.544-0.998 0.080-0.123 0.158-0.243 0.228-0.359 0.726-1.21 1.438-2.517 1.661-3.929 0.278-1.763 0.13-3.578-0.018-5.392-0.188-2.302-0.376-4.605 0.307-6.803 0.839-2.7 2.804-4.109 5.17-5.366z">
            </path>
        </symbol>
        <symbol id="icon-o" viewBox="0 0 32 32">
            <path
                d="M31.068 14.184c-0.941-8.059-8.237-13.83-16.296-12.891-8.063 0.938-13.838 8.237-12.896 16.3s8.243 13.835 16.305 12.891c8.059-0.944 13.828-8.241 12.887-16.3zM14.794 4.671c1.95-0.144 3.773 0.331 5.346 1.5 2.545 1.892 3.843 5.020 4.273 8.081 0.455 3.231 0.41 7.719-1.695 10.425-1.149 1.475-2.601 2.074-4.399 2.294-1.916 0.185-3.833-0.329-5.399-1.446-2.476-1.786-3.746-4.72-4.207-7.66-0.525-3.349-0.506-8.035 1.664-10.86 1.154-1.503 2.596-2.101 4.417-2.335z">
            </path>
        </symbol>
        <symbol id="icon-c" viewBox="0 0 28 32">
            <path
                d="M14.072 0.534c1.902-0.249 4.054-0.054 5.904 0.413 1.125 0.284 2.248 0.67 3.398 0.832 0.661 0.093 1.355 0.086 2.023 0.097 0.108 1.852 0.465 6.29 0.251 7.921-0.341 0.066-0.603 0.048-0.945 0.001-0.351-0.406-0.516-1.314-0.727-1.84-0.773-1.93-2.303-3.413-4.221-4.199-2.403-0.986-5.273-0.859-7.641 0.164-2.488 1.075-4.515 3.225-5.502 5.745-1.53 3.902-1.519 8.907 0.197 12.749 1.189 2.661 3.305 5.002 6.074 6.041 2.643 0.992 5.516 0.699 8.047-0.462 1.131-0.577 2.176-1.434 2.848-2.521 0.381-0.615 0.66-1.784 1.264-2.181l0.168 0.067c0.649 0.819 0.89 3.382 1.103 4.484-2.44 2.151-5.384 3.577-8.62 4.003-4.235 0.556-8.655-0.298-12.077-2.939-3.115-2.404-5.007-6.181-5.475-10.052-0.544-4.498 0.45-9.037 3.296-12.617 2.623-3.299 6.482-5.227 10.633-5.704z">
            </path>
        </symbol>
        <symbol id="icon-e" viewBox="0 0 30 32">
            <path
                d="M19.953 1.52c-1.663-0.414-3.675-0.637-5.38-0.426-3.978 0.391-7.38 1.925-9.965 5.044-2.864 3.495-4.223 7.983-3.783 12.479 0.396 3.833 2.159 7.644 5.217 10.069 3.212 2.549 7.751 3.267 11.737 2.795 3.539-0.418 6.677-1.947 8.871-4.804 1.004-1.306 1.733-2.781 2.308-4.319-0.070-0.067-0.141-0.135-0.211-0.205-0.339-0.334-0.689-0.678-1.145-0.816-0.040 0.018-0.075 0.033-0.106 0.046-0.139 0.058-0.195 0.082-0.31 0.257-1.893 2.787-4.062 4.631-7.45 5.265-2.641 0.494-5.266 0.039-7.482-1.515-1.763-1.237-3.154-3.063-3.968-5.050 4.052-2.402 8.456-4.834 13.117-5.789 0.923-0.189 1.863-0.295 2.801-0.401 0.986-0.111 1.969-0.222 2.924-0.429 0.641-0.139 1.101-0.269 1.319-0.948 0.545-1.704-0.315-4.489-1.174-5.957-1.57-2.687-4.328-4.553-7.321-5.297zM15.831 4.231c0.757 0.004 1.569 0.058 2.298 0.26 1.234 0.34 2.352 1.071 2.954 2.227 0.417 0.8 0.742 2.082 0.415 2.957-0.275 0.735-0.869 1.237-1.527 1.625-0.821 0.483-1.803 0.795-2.75 1.094-0.322 0.102-0.639 0.202-0.945 0.308-1.654 0.571-3.284 1.195-4.86 1.957-0.36 0.16-0.816 0.448-1.301 0.755-0.911 0.576-1.927 1.217-2.615 1.206-0.367-0.307-0.462-0.563-0.5-1.025-0.255-3.065 0.979-6.551 2.961-8.868 1.452-1.696 3.731-2.323 5.87-2.496z">
            </path>
        </symbol>
        <symbol id="icon-j" viewBox="0 0 26 32">
            <path
                d="M13.375 0.73c2.41-0.013 9.179-0.314 11.005 0.168 0.153 0.21 0.139 0.213 0.12 0.474-0.422 0.711-1.323 0.997-1.948 1.507-0.361 0.294-0.686 0.713-0.795 1.172-0.403 1.701-0.244 3.667-0.246 5.414l-0.048 7.377c-0.013 1.76 0.042 3.56-0.164 5.308-0.295 2.503-1.4 4.829-3.422 6.388-2.521 1.944-6.040 2.377-9.121 1.959-2.699-0.365-5.331-1.534-7.009-3.749-1.522-2.009-1.908-4.355-1.585-6.811 0.085-0.434 0.194-0.853 0.349-1.267 0.574-1.531 1.698-2.789 3.213-3.439 1.6-0.686 3.618-0.736 5.226-0.044 0.782 0.336 1.275 0.916 1.563 1.717 0.176 0.49 0.234 0.909 0.009 1.385-0.648 0.613-2.107-0.208-3.013 0.046-0.836 0.234-1.476 0.82-1.876 1.58-0.695 1.319-0.712 3.042-0.215 4.429 0.443 1.237 1.447 2.235 2.629 2.782 1.404 0.649 3.377 0.811 4.843 0.266 1.136-0.422 1.97-1.326 2.428-2.435 0.395-0.956 0.58-2.055 0.673-3.080 0.21-2.31 0.469-16.265-0.039-17.774-0.537-1.592-2.368-1.639-2.787-2.608 0-0.234 0.005-0.397 0.118-0.602 0.030-0.055 0.061-0.108 0.092-0.161z">
            </path>
        </symbol>
        <symbol id="icon-y" viewBox="0 0 29 32">
            <path
                d="M15.961 19.559c1.082-2.677 2.016-5.436 3.012-8.148 0.777-2.111 1.737-4.296 2.214-6.493 0.102-0.468 0.146-0.932 0.015-1.399-0.4-1.427-2.241-1.313-2.657-2.416 0.058-0.242 0.024-0.347 0.255-0.495 0.426-0.272 7.943-0.301 8.864-0.184 0.307 0.039 0.525 0.107 0.727 0.354 0.021 0.53-0.107 0.771-0.584 1.041-0.764 0.432-1.737 0.652-2.311 1.362-0.902 1.118-4.3 10.686-5.139 12.861l-2.802 7.27c-0.705 1.826-1.366 3.811-2.415 5.471-0.636 1.005-1.492 1.978-2.53 2.576-1.514 0.87-3.435 1.031-5.108 0.56-1.301-0.367-2.491-1.172-3.114-2.398-0.493-0.97-0.615-2.26-0.252-3.293 0.27-0.77 0.894-1.408 1.637-1.74 0.481-0.214 1.268-0.4 1.766-0.13 1.184 0.644 0.413 2.771 0.867 3.905 0.153 0.381 0.377 0.65 0.767 0.807 0.633 0.255 1.733-0.094 2.303-0.372 1.93-0.941 2.74-3.975 3.382-5.848-0.81 0.015-1.747 0.115-2.545-0.025-0.124-0.021-0.28-0.054-0.39-0.119-0.264-0.153-0.434-0.432-0.571-0.698-0.63-1.228-1.057-2.655-1.549-3.948l-3.063-8.060c-0.603-1.584-1.15-3.235-1.889-4.759-0.552-1.136-1.288-2.296-2.423-2.924-0.563-0.31-1.303-0.307-1.684-0.87-0.066-0.385 0.002-0.618 0.121-0.986 2.031-0.083 10.196-0.295 11.698 0.123 0.083 0.287 0.097 0.683-0.017 0.965-0.179 0.446-1.041 0.583-1.438 0.742-0.428 0.172-0.798 0.432-0.965 0.881-0.183 0.497 0.061 1.295 0.204 1.799 0.622 2.202 1.624 4.382 2.45 6.525 1.032 2.677 1.963 5.456 3.166 8.062z">
            </path>
        </symbol>
        <symbol id="icon-f" viewBox="0 0 18 32">
            <path
                d="M10.577 0.845c1.632-0.085 3.18 0.123 4.605 0.977 1.040 0.623 1.922 1.561 2.184 2.774 0.143 0.659 0.098 1.356-0.285 1.928-0.416 0.621-1.257 1.105-1.996 1.198-0.444 0.056-0.965-0.005-1.32-0.292-0.825-0.667-0.441-1.852-0.598-2.764-0.085-0.491-0.34-0.904-0.765-1.17-0.642-0.403-1.647-0.536-2.375-0.334-0.637 0.176-1.096 0.627-1.389 1.208-0.934 1.844-0.417 4.254 0.16 6.119 1.957 0.049 3.923 0.009 5.881 0.007 0.005 0.831-0.010 1.648-0.073 2.476-1.891-0.002-3.786-0.031-5.675 0.041-0.121 1.943-0.074 3.917-0.085 5.865-0.018 2.915-0.305 6.132 0.363 8.969 0.101 0.263 0.213 0.51 0.35 0.757 0.589 1.072 0.952 0.957 2 1.303 0.357 0.117 0.565 0.262 0.72 0.595-0.014 0.282-0.058 0.388-0.224 0.616-0.093 0.059-0.13 0.093-0.252 0.115-0.38 0.073-9.504 0.033-10.020-0.052-0.354-0.060-0.604-0.138-0.827-0.439 0.147-0.861 1.106-0.8 1.682-1.357 0.661-0.638 0.992-1.494 1.176-2.377 0.399-1.924 0.245-4.104 0.238-6.068l-0.037-7.952-3.732-0.014c-0.076-0.821-0.081-1.65-0.102-2.474l3.716-0.002c-0.182-0.556-0.364-1.133-0.444-1.714-0.237-1.717 0.162-3.462 1.218-4.854 1.403-1.849 3.66-2.794 5.908-3.085z">
            </path>
        </symbol>
        <symbol id="icon-map-link" viewBox="0 0 20 32">
            <path d="M4.202 30.062l14.048-14.048-14.048-14.048-3.481 3.481 10.567 10.567-10.567 10.567 3.481 3.481z">
            </path>
        </symbol>
        <symbol id="icon-burger" viewBox="0 0 43 32">
            <path
                d="M0 0h42.667v5.333h-42.667v-5.333zM0 13.333h42.667v5.333h-42.667v-5.333zM0 26.667h42.667v5.333h-42.667v-5.333z">
            </path>
        </symbol>
        <symbol id="icon-close" viewBox="0 0 32 32">
            <path
                d="M27.179 0.918l-11.315 11.312-11.312-11.312-3.771 3.771 11.312 11.312-11.312 11.312 3.771 3.771 11.312-11.312 11.315 11.312 3.771-3.771-11.312-11.312 11.312-11.312-3.771-3.771z">
            </path>
        </symbol>
        <symbol id="icon-twitter" viewBox="0 0 34 32">
            <path
                d="M26.684 0.457h5.195l-11.351 12.757 13.353 17.36h-10.455l-8.189-10.529-9.37 10.529h-5.199l12.141-13.646-12.81-16.472h10.721l7.402 9.624 8.561-9.624zM24.861 27.516h2.879l-18.583-24.162h-3.089l18.794 24.162z">
            </path>
        </symbol>
        <symbol id="icon-facebook" viewBox="0 0 30 32">
            <path
                d="M30.476 15.701c0-8.467-6.822-15.331-15.238-15.331s-15.238 6.864-15.238 15.331c0 7.652 5.572 13.995 12.857 15.145v-10.713h-3.869v-4.432h3.869v-3.378c0-3.842 2.275-5.965 5.756-5.965 1.667 0 3.411 0.299 3.411 0.299v3.773h-1.921c-1.893 0-2.483 1.182-2.483 2.394v2.876h4.226l-0.675 4.432h-3.551v10.713c7.285-1.15 12.857-7.493 12.857-15.145z">
            </path>
        </symbol>
        <symbol id="icon-favorite-outline" viewBox="0 0 34 32">
            <path stroke-linejoin="miter" stroke-linecap="butt" stroke-miterlimit="4" stroke-width="1.6842"
                d="M16.053 1.359c0.29-0.688 1.289-0.688 1.579 0l3.416 8.115c0.368 0.873 1.197 1.465 2.14 1.539l8.868 0.702c0.771 0.061 1.046 0.986 0.49 1.457l-6.758 5.719c-0.724 0.612-1.044 1.579-0.821 2.502l2.066 8.549c0.167 0.694-0.609 1.303-1.28 0.898h-0.002l-7.59-4.581c-0.81-0.489-1.828-0.489-2.638 0l-7.592 4.581c-0.671 0.405-1.447-0.204-1.28-0.898l2.066-8.549c0.223-0.923-0.097-1.889-0.821-2.502l-6.758-5.719c-0.556-0.472-0.281-1.396 0.49-1.457l8.868-0.702c0.943-0.075 1.772-0.666 2.14-1.539l3.416-8.115z">
            </path>
        </symbol>
        <symbol id="icon-favorite-filled" viewBox="0 0 34 32">
            <path
                d="M15.277 1.031c0.579-1.375 2.551-1.375 3.13 0l3.417 8.116c0.244 0.58 0.796 0.976 1.43 1.026l8.869 0.702c1.503 0.119 2.112 1.972 0.967 2.941l-6.757 5.718c-0.483 0.408-0.694 1.049-0.546 1.66l2.064 8.55c0.35 1.449-1.245 2.594-2.532 1.817l-7.593-4.582c-0.542-0.327-1.224-0.327-1.767 0l-7.593 4.582c-1.287 0.776-2.882-0.369-2.532-1.817l2.064-8.55c0.147-0.611-0.063-1.252-0.546-1.66l-6.757-5.718c-1.145-0.969-0.536-2.822 0.967-2.941l8.869-0.702c0.633-0.050 1.185-0.446 1.429-1.026l3.417-8.116z">
            </path>
        </symbol>
        <symbol id="icon-location" viewBox="0 0 26 32">
            <path
                d="M12.8 19.2c3.53 0 6.4-2.87 6.4-6.4s-2.87-6.4-6.4-6.4c-3.53 0-6.4 2.87-6.4 6.4s2.87 6.4 6.4 6.4zM12.8 9.6c1.765 0 3.2 1.435 3.2 3.2s-1.435 3.2-3.2 3.2c-1.765 0-3.2-1.435-3.2-3.2s1.435-3.2 3.2-3.2z">
            </path>
            <path
                d="M11.872 31.702c0.271 0.193 0.595 0.297 0.928 0.297s0.657-0.104 0.928-0.297c0.486-0.344 11.918-8.598 11.872-18.902 0-7.058-5.742-12.8-12.8-12.8s-12.8 5.742-12.8 12.792c-0.046 10.312 11.386 18.566 11.872 18.91zM12.8 3.2c5.294 0 9.6 4.306 9.6 9.608 0.034 7.101-7.021 13.477-9.6 15.568-2.578-2.093-9.634-8.47-9.6-15.576 0-5.294 4.306-9.6 9.6-9.6z">
            </path>
        </symbol>
        <symbol id="icon-phone" viewBox="0 0 32 32">
            <path
                d="M24.77 17.336c-0.156-0.157-0.342-0.281-0.546-0.365s-0.423-0.128-0.645-0.128c-0.221 0-0.44 0.044-0.645 0.128s-0.39 0.209-0.546 0.365l-2.685 2.685c-1.245-0.371-3.567-1.213-5.039-2.685s-2.314-3.795-2.685-5.039l2.685-2.685c0.157-0.156 0.281-0.342 0.365-0.546s0.128-0.423 0.128-0.645c0-0.221-0.044-0.44-0.128-0.645s-0.209-0.39-0.365-0.546l-6.737-6.737c-0.156-0.157-0.342-0.281-0.546-0.365s-0.423-0.128-0.645-0.128c-0.221 0-0.44 0.044-0.645 0.128s-0.39 0.209-0.546 0.365l-4.568 4.568c-0.64 0.64-1 1.519-0.987 2.417 0.039 2.398 0.674 10.729 7.239 17.294s14.895 7.198 17.295 7.239h0.047c0.889 0 1.73-0.35 2.366-0.987l4.568-4.568c0.157-0.156 0.281-0.342 0.365-0.546s0.128-0.423 0.128-0.645c0-0.221-0.044-0.44-0.128-0.645s-0.209-0.39-0.365-0.546l-6.737-6.739zM24.556 28.64c-2.102-0.035-9.293-0.6-14.944-6.252-5.669-5.669-6.218-12.886-6.252-14.946l3.377-3.377 4.355 4.355-2.178 2.178c-0.198 0.198-0.344 0.442-0.423 0.71s-0.092 0.552-0.035 0.826c0.040 0.194 1.029 4.787 3.825 7.582s7.389 3.784 7.582 3.825c0.274 0.059 0.558 0.048 0.826-0.032s0.512-0.226 0.71-0.425l2.179-2.178 4.355 4.355-3.379 3.377z">
            </path>
        </symbol>
        <symbol id="icon-email" viewBox="0 0 40 32">
            <path
                d="M36 0h-32c-2.206 0-4 1.794-4 4v24c0 2.206 1.794 4 4 4h32c2.206 0 4-1.794 4-4v-24c0-2.206-1.794-4-4-4zM36 4v1.022l-16 12.446-16-12.444v-1.024h32zM4 28v-17.912l14.772 11.49c0.35 0.275 0.783 0.425 1.228 0.425s0.878-0.15 1.228-0.425l14.772-11.49 0.004 17.912h-32.004z">
            </path>
        </symbol>
        <symbol id="icon-marker" viewBox="0 0 32 32">
            <path
                d="M16 24l1.6-3.2v-8.227c2.754-0.715 4.8-3.2 4.8-6.173 0-3.53-2.87-6.4-6.4-6.4s-6.4 2.87-6.4 6.4c0 2.973 2.046 5.458 4.8 6.173v8.227l1.6 3.2zM12.8 6.4c0-1.765 1.435-3.2 3.2-3.2s3.2 1.435 3.2 3.2c0 1.765-1.435 3.2-3.2 3.2s-3.2-1.435-3.2-3.2z">
            </path>
            <path
                d="M22.827 13.701l-0.853 3.085c4.146 1.146 6.826 3.349 6.826 5.614 0 3.027-5.256 6.4-12.8 6.4s-12.8-3.373-12.8-6.4c0-2.266 2.68-4.469 6.827-5.616l-0.853-3.085c-5.659 1.565-9.174 4.898-9.174 8.701 0 5.382 7.029 9.6 16 9.6s16-4.218 16-9.6c0-3.803-3.515-7.136-9.173-8.699z">
            </path>
        </symbol>
        <symbol id="icon-instagram" viewBox="0 0 32 32">
            <path
                d="M31.969 9.408c-0.075-1.7-0.35-2.869-0.744-3.882-0.406-1.075-1.031-2.038-1.85-2.838-0.8-0.813-1.769-1.444-2.832-1.844-1.019-0.394-2.182-0.669-3.882-0.744-1.713-0.081-2.257-0.1-6.601-0.1s-4.888 0.019-6.595 0.094c-1.7 0.075-2.869 0.35-3.882 0.744-1.075 0.406-2.038 1.031-2.838 1.85-0.813 0.8-1.444 1.769-1.844 2.832-0.394 1.019-0.669 2.182-0.744 3.882-0.081 1.713-0.1 2.257-0.1 6.601s0.019 4.888 0.094 6.595c0.075 1.7 0.35 2.869 0.744 3.882 0.406 1.075 1.038 2.038 1.85 2.838 0.8 0.813 1.769 1.444 2.832 1.844 1.019 0.394 2.182 0.669 3.882 0.744 1.706 0.075 2.25 0.094 6.595 0.094s4.888-0.019 6.595-0.094c1.7-0.075 2.869-0.35 3.882-0.744 2.151-0.831 3.851-2.532 4.682-4.682 0.394-1.019 0.669-2.182 0.744-3.882 0.075-1.707 0.094-2.25 0.094-6.595s-0.006-4.888-0.081-6.595zM29.087 22.473c-0.069 1.563-0.331 2.407-0.55 2.969-0.538 1.394-1.644 2.5-3.038 3.038-0.563 0.219-1.413 0.481-2.969 0.55-1.688 0.075-2.194 0.094-6.464 0.094s-4.782-0.019-6.464-0.094c-1.563-0.069-2.407-0.331-2.969-0.55-0.694-0.256-1.325-0.663-1.838-1.194-0.531-0.519-0.938-1.144-1.194-1.838-0.219-0.563-0.481-1.413-0.55-2.969-0.075-1.688-0.094-2.194-0.094-6.464s0.019-4.782 0.094-6.464c0.069-1.563 0.331-2.407 0.55-2.969 0.256-0.694 0.663-1.325 1.2-1.838 0.519-0.531 1.144-0.938 1.838-1.194 0.563-0.219 1.413-0.481 2.969-0.55 1.688-0.075 2.194-0.094 6.464-0.094 4.276 0 4.782 0.019 6.464 0.094 1.563 0.069 2.407 0.331 2.969 0.55 0.694 0.256 1.325 0.662 1.838 1.194 0.531 0.519 0.938 1.144 1.194 1.838 0.219 0.563 0.481 1.413 0.55 2.969 0.075 1.688 0.094 2.194 0.094 6.464s-0.019 4.77-0.094 6.458z">
            </path>
            <path
                d="M16.059 7.783c-4.538 0-8.22 3.682-8.22 8.22s3.682 8.22 8.22 8.22c4.538 0 8.22-3.682 8.22-8.22s-3.682-8.22-8.22-8.22zM16.059 21.335c-2.944 0-5.332-2.388-5.332-5.332s2.388-5.332 5.332-5.332c2.944 0 5.332 2.388 5.332 5.332s-2.388 5.332-5.332 5.332z">
            </path>
            <path
                d="M26.524 7.458c0 1.060-0.859 1.919-1.919 1.919s-1.919-0.859-1.919-1.919c0-1.060 0.859-1.919 1.919-1.919s1.919 0.859 1.919 1.919z">
            </path>
        </symbol>
        <symbol id="icon-subscribe" viewBox="0 0 35 32">
            <path d="M14.122 4.56l11.533 11.44-11.533 11.44 3.755 3.787 15.352-15.227-15.352-15.227-3.755 3.787z">
            </path>
            <path d="M4.544 0.773l-3.755 3.787 11.533 11.44-11.533 11.44 3.755 3.787 15.352-15.227-15.352-15.227z">
            </path>
        </symbol>

        <symbol id="icon-company-logo" viewBox="0 0 84 36" fill="none">
            <path d="M35.8389 9.89467C35.5345 6.78139 32.7599 4.50705 29.6474 4.81962C26.5465 5.13102 24.2825 7.89314 24.5857 10.9949C24.8889 14.0965 27.6451 16.3677 30.7476 16.073C33.8617 15.7768 36.1433 13.008 35.8389 9.89467ZM31.6245 6.1248C31.6936 6.12461 31.7451 6.13864 31.8093 6.1561L31.8232 6.15988C31.8483 6.28589 31.8232 6.34445 31.7573 6.4517C31.6419 6.63944 31.5135 6.81919 31.3851 6.99897C31.1584 7.3163 30.9318 7.6337 30.7765 7.99524C30.4397 8.7791 30.5182 9.69342 30.5975 10.6173C30.6669 11.4259 30.7369 12.2418 30.5297 12.984C30.2805 13.8769 29.6549 14.4609 28.8715 14.8965C28.828 14.9038 28.7801 14.9001 28.7341 14.8965C28.7244 14.8958 28.7149 14.8951 28.7055 14.8944C28.6995 14.894 28.6936 14.8937 28.6878 14.8934L28.6802 14.8791C28.6355 14.7942 28.6329 14.789 28.6652 14.6924C28.7071 14.5671 28.7906 14.4389 28.8692 14.318C28.8993 14.2719 28.9286 14.2268 28.9547 14.1834C29.227 13.7297 29.494 13.2396 29.5775 12.7101C29.6818 12.0489 29.6262 11.3685 29.5707 10.6881C29.5002 9.82472 29.4297 8.961 29.6859 8.13689C30.0007 7.12431 30.7375 6.59614 31.6245 6.1248Z" fill="#0B0803"/>
            <path d="M49.1508 26.3191C48.7978 23.297 46.0619 21.133 43.0398 21.485C40.0162 21.8369 37.8506 24.5738 38.2037 27.5975C38.5569 30.6213 41.2948 32.7857 44.3182 32.4317C47.3403 32.0777 49.5038 29.3413 49.1508 26.3191ZM43.0482 22.7518C43.7793 22.6977 44.4632 22.8758 45.053 23.3143C46.0074 24.0239 46.4942 25.1967 46.6555 26.3449C46.8262 27.5566 46.8094 29.2394 46.0199 30.2541C45.5892 30.8072 45.0446 31.032 44.3702 31.1145C43.6517 31.1838 42.9327 30.991 42.3454 30.5724C41.4171 29.9028 40.9407 28.8024 40.7678 27.7C40.5708 26.4441 40.5781 24.6867 41.3917 23.6274C41.8246 23.0638 42.3654 22.8395 43.0482 22.7518Z" fill="#0B0803"/>
            <path d="M17.756 0.275559C18.7365 0.146984 19.8464 0.247829 20.8003 0.488436C21.3805 0.634764 21.9594 0.833772 22.5525 0.917231C22.8936 0.965184 23.2514 0.961348 23.5955 0.967388C23.6512 1.9223 23.8354 4.21051 23.7251 5.0516C23.5494 5.08569 23.4144 5.07613 23.2377 5.05208C23.0567 4.84283 22.9716 4.37448 22.8629 4.10315C22.464 3.10811 21.6754 2.34353 20.6866 1.93795C19.4475 1.42969 17.9679 1.49503 16.7466 2.02262C15.4639 2.57674 14.4188 3.68575 13.9094 4.98474C13.1204 6.99678 13.1259 9.57764 14.0112 11.5582C14.6245 12.9304 15.7155 14.1375 17.1432 14.6732C18.5061 15.1846 19.9872 15.0334 21.2927 14.4352C21.8756 14.1378 22.4146 13.6956 22.7614 13.1351C22.9576 12.818 23.1018 12.2153 23.413 12.0105L23.4996 12.0449C23.834 12.4674 23.9585 13.7885 24.0684 14.3569C22.8101 15.4659 21.2921 16.2012 19.6236 16.4207C17.4399 16.7075 15.161 16.2668 13.3965 14.9052C11.7903 13.6657 10.8147 11.7182 10.5735 9.72239C10.2932 7.40315 10.8053 5.06253 12.2732 3.21657C13.6259 1.51562 15.6155 0.521155 17.756 0.275559Z" fill="#0B0803"/>
            <path d="M58.7648 5.78424C58.1803 5.6387 57.4728 5.56013 56.8735 5.63445C55.4748 5.77185 54.2789 6.3111 53.3702 7.40782C52.3634 8.63643 51.8854 10.2143 52.0403 11.7951C52.1795 13.1427 52.7993 14.4826 53.8745 15.335C55.0037 16.2311 56.5993 16.4837 58.0006 16.3178C59.2449 16.1707 60.3478 15.6334 61.1194 14.6289C61.4724 14.1699 61.7287 13.6511 61.9309 13.1107C61.9061 13.0873 61.8815 13.063 61.8566 13.0387C61.7374 12.9214 61.6144 12.8004 61.454 12.7517C61.4398 12.7582 61.4276 12.7633 61.4168 12.7679C61.368 12.7884 61.3484 12.7967 61.308 12.8581C60.6425 13.8378 59.8799 14.4863 58.6887 14.709C57.7601 14.8826 56.8372 14.7229 56.0583 14.1763C55.4386 13.7414 54.9496 13.0994 54.6633 12.4009C56.0878 11.5563 57.6361 10.7014 59.2748 10.3657C59.5992 10.2993 59.9299 10.262 60.2596 10.2248C60.6063 10.1857 60.9518 10.1467 61.2875 10.0741C61.5128 10.0254 61.6746 9.97965 61.7513 9.74088C61.943 9.14175 61.6405 8.16289 61.3384 7.64659C60.7864 6.70181 59.8169 6.04602 58.7648 5.78424ZM57.3157 6.73748C57.582 6.73906 57.8672 6.75791 58.1235 6.82871C58.5574 6.94836 58.9503 7.2054 59.1619 7.61177C59.3085 7.89298 59.423 8.34383 59.3079 8.65151C59.2113 8.90982 59.0023 9.08634 58.7711 9.22291C58.4827 9.39289 58.1372 9.50224 57.8045 9.60754C57.6913 9.64335 57.5797 9.67869 57.4723 9.71578C56.8908 9.91663 56.3178 10.1358 55.7637 10.4038C55.637 10.4601 55.4769 10.5613 55.3063 10.6691C54.9859 10.8714 54.6287 11.097 54.3871 11.0931C54.2579 10.985 54.2248 10.8952 54.2112 10.7328C54.1213 9.65532 54.5552 8.42971 55.2521 7.61513C55.7626 7.0189 56.5637 6.79846 57.3157 6.73748Z" fill="#0B0803"/>
            <path d="M69.2405 5.68141C68.8266 5.62468 68.4075 5.60887 67.9905 5.63419C66.5713 5.74995 65.3712 6.26762 64.4426 7.37248C63.421 8.596 62.9305 10.1771 63.0801 11.7642C63.2051 13.0787 63.8191 14.423 64.8544 15.2671C65.9689 16.176 67.6318 16.4869 69.0346 16.3278C70.2831 16.1865 71.405 15.5998 72.1844 14.6087C72.5431 14.1487 72.8242 13.6328 73.0158 13.0815C72.9916 13.0605 72.9663 13.0375 72.9401 13.0136C72.8102 12.8951 72.6574 12.7559 72.4948 12.7429C71.8267 13.7491 71.0268 14.4571 69.8146 14.7015C68.9012 14.8858 68.0146 14.7513 67.2305 14.2309C66.5577 13.7842 66.0682 13.1336 65.7194 12.4129C67.2594 11.3652 69.1539 10.5627 70.9848 10.224C71.2119 10.1819 71.4426 10.1641 71.6732 10.1463C71.8641 10.1315 72.0549 10.1168 72.2437 10.0883C72.4896 10.0512 72.7391 9.99499 72.7942 9.714C72.9492 8.92153 72.6366 7.9683 72.1687 7.33115C71.4628 6.36988 70.4055 5.84349 69.2405 5.68141ZM67.8881 6.77598C68.3655 6.73817 68.8303 6.71464 69.2904 6.88297C69.7316 7.04427 70.0872 7.3625 70.2789 7.79377C70.4055 8.07766 70.4606 8.39552 70.3408 8.69133C70.2726 8.8583 70.1476 9.00999 70.0026 9.11608C69.6557 9.3695 68.799 9.66852 68.0538 9.92864C67.6865 10.0568 67.3463 10.1756 67.1075 10.2748C66.7245 10.4455 66.3554 10.6527 65.987 10.8594C65.7826 10.9741 65.5784 11.0887 65.3722 11.1969C65.1994 10.1416 65.3076 9.06603 65.8822 8.14095C66.357 7.37731 67.0261 6.97342 67.8881 6.77598Z" fill="#0B0803"/>
            <path d="M32.5199 18.342C33.6495 18.3357 36.8227 18.1949 37.6787 18.4208C37.7504 18.519 37.7437 18.5206 37.7349 18.643C37.537 18.9765 37.1147 19.1104 36.8218 19.3494C36.6528 19.487 36.5001 19.6834 36.4491 19.8988C36.2601 20.6961 36.3346 21.6178 36.334 22.4367L36.3116 25.8948C36.3056 26.7199 36.3314 27.5634 36.2347 28.3828C36.0964 29.5561 35.5785 30.6465 34.6305 31.3771C33.4488 32.2884 31.7992 32.4911 30.3549 32.2952C29.0899 32.124 27.8558 31.5761 27.0693 30.5378C26.3557 29.596 26.1749 28.4962 26.3263 27.3449C26.3663 27.1417 26.4172 26.9452 26.4901 26.7509C26.7593 26.0334 27.2859 25.4436 27.9961 25.139C28.7463 24.8175 29.6921 24.7939 30.4459 25.1185C30.8127 25.276 31.0438 25.5476 31.1786 25.9231C31.2611 26.1526 31.2881 26.3491 31.1828 26.5723C30.8788 26.8596 30.195 26.4746 29.7703 26.5938C29.3782 26.7036 29.0785 26.9783 28.8908 27.3344C28.5649 27.9526 28.5572 28.7604 28.7902 29.4106C28.9977 29.9905 29.4682 30.4585 30.0224 30.7148C30.6803 31.0189 31.6054 31.095 32.2927 30.8393C32.8252 30.6412 33.2163 30.2179 33.431 29.6979C33.6161 29.2499 33.7028 28.7347 33.7464 28.2541C33.8446 27.1711 33.9664 20.6299 33.7279 19.9224C33.4761 19.1761 32.6181 19.154 32.4214 18.6997C32.4215 18.5899 32.4239 18.5138 32.4769 18.4176C32.4908 18.3919 32.5056 18.3672 32.5199 18.342Z" fill="#0B0803"/>
            <path d="M55.8574 30.46C56.339 29.2678 56.755 28.0393 57.1988 26.8318C57.5449 25.8916 57.9724 24.9189 58.1846 23.9404C58.2298 23.7319 58.2498 23.5255 58.1915 23.3175C58.0134 22.682 57.1935 22.7329 57.0081 22.2418C57.0339 22.1341 57.0186 22.0874 57.1216 22.0212C57.3112 21.8999 60.6584 21.8873 61.0687 21.9393C61.2052 21.9566 61.3024 21.9871 61.3922 22.0969C61.4016 22.3327 61.3444 22.4404 61.1322 22.5606C60.7919 22.7529 60.3585 22.8511 60.1033 23.1673C59.7015 23.6652 58.1883 27.9258 57.8149 28.8943L56.5669 32.1318C56.2528 32.9449 55.9587 33.8289 55.4913 34.5684C55.2082 35.0159 54.8269 35.4492 54.3647 35.7155C53.6903 36.1031 52.8352 36.1745 52.0899 35.9649C51.5106 35.8016 50.9806 35.4429 50.7033 34.8972C50.4838 34.4654 50.4297 33.8908 50.5909 33.4307C50.7112 33.0878 50.989 32.8036 51.3199 32.656C51.5342 32.561 51.8845 32.478 52.1062 32.5982C52.6335 32.885 52.29 33.832 52.4922 34.3373C52.5605 34.5069 52.6603 34.6267 52.8336 34.6965C53.1157 34.81 53.6052 34.6545 53.8594 34.5311C54.7187 34.1119 55.0795 32.7611 55.3652 31.927C55.0044 31.9338 54.5873 31.978 54.2318 31.916C54.1766 31.9065 54.1073 31.8918 54.0579 31.8629C53.9403 31.7946 53.8646 31.6707 53.8037 31.552C53.5232 31.0052 53.3331 30.3697 53.1141 29.7941L51.7501 26.2047C51.4817 25.4993 51.238 24.764 50.9087 24.0854C50.6629 23.5796 50.3351 23.0628 49.8298 22.7833C49.5793 22.6452 49.2495 22.6468 49.0798 22.3957C49.0504 22.2245 49.0809 22.1205 49.1339 21.9566C50.0384 21.9199 53.6745 21.8253 54.3431 22.0112C54.3799 22.1389 54.3862 22.3154 54.3358 22.4409C54.2559 22.6394 53.872 22.7003 53.6955 22.7712C53.5049 22.8479 53.3399 22.9635 53.2659 23.1636C53.1845 23.3847 53.2932 23.7403 53.3567 23.9646C53.6335 24.9452 54.08 25.9158 54.4476 26.8701C54.9072 28.0624 55.3216 29.2998 55.8574 30.46Z" fill="#0B0803"/>
            <path d="M49.456 1.16609C50.2591 1.12423 51.0212 1.2268 51.7224 1.64709C52.2345 1.95382 52.6683 2.41544 52.7975 3.01263C52.8679 3.3368 52.8458 3.68009 52.6573 3.96166C52.4525 4.26739 52.0386 4.50569 51.6751 4.55123C51.4566 4.57854 51.2003 4.54876 51.0254 4.40742C50.6194 4.07936 50.8085 3.49589 50.7313 3.04703C50.6893 2.80542 50.5637 2.60211 50.3547 2.47117C50.0385 2.27279 49.5443 2.20724 49.1855 2.30677C48.872 2.39365 48.6461 2.6154 48.5017 2.90128C48.0421 3.80882 48.2963 4.99499 48.5805 5.91277C49.5437 5.93667 50.5112 5.91724 51.475 5.91634C51.4776 6.32523 51.4703 6.72729 51.4393 7.13508C50.5086 7.13408 49.5758 7.11995 48.6461 7.15546C48.5868 8.11179 48.6099 9.08346 48.6041 10.042C48.5952 11.4766 48.4539 13.0603 48.7827 14.4562C48.8326 14.5855 48.8877 14.7073 48.955 14.829C49.2449 15.3566 49.4235 15.3001 49.9392 15.4701C50.1152 15.5278 50.2171 15.5993 50.2938 15.7631C50.2869 15.9018 50.2654 15.9543 50.1835 16.0662C50.1378 16.0951 50.1194 16.1119 50.0595 16.1229C49.8725 16.1586 45.3818 16.1392 45.1276 16.0972C44.9533 16.0678 44.8304 16.0294 44.7206 15.8813C44.7931 15.4575 45.2647 15.4874 45.5483 15.2132C45.8735 14.8992 46.0368 14.4781 46.1271 14.0431C46.3236 13.0962 46.2479 12.0234 46.2443 11.0565L46.2259 7.1427L44.3892 7.13587C44.3519 6.73165 44.3492 6.32361 44.3387 5.91797L46.1676 5.91703C46.0778 5.64344 45.9885 5.35924 45.9491 5.07325C45.8325 4.22811 46.0289 3.3692 46.5484 2.68441C47.2391 1.77414 48.3499 1.30911 49.456 1.16609Z" fill="#0B0803"/>
            <path d="M41.8546 1.16718C42.5946 1.10489 43.3052 1.15883 43.9691 1.52239C44.4996 1.81295 44.9528 2.29222 45.1157 2.88536C45.2165 3.25291 45.2275 3.71852 45.0195 4.05341C44.8725 4.29055 44.6267 4.42931 44.3567 4.47989C44.1109 4.52601 43.7858 4.52543 43.5804 4.36066C43.1917 4.04873 43.4517 3.44898 43.3651 3.03583C43.3131 2.78703 43.1124 2.576 42.8945 2.45667C42.5515 2.26858 42.0573 2.24573 41.6863 2.35729C41.3783 2.44989 41.1457 2.65131 41.0044 2.93982C40.5948 3.77603 40.9055 5.05722 41.1865 5.88939C42.1087 5.94407 43.0515 5.90158 43.977 5.90636C44.0001 6.31897 43.9791 6.72324 43.9544 7.13539C43.0153 7.13328 42.0756 7.13665 41.1364 7.14536C41.0932 8.31972 41.0759 9.49486 41.0843 10.67C41.0811 11.8806 40.9605 13.2406 41.3156 14.4083C41.7057 15.2632 42.5158 15.4073 42.707 15.864C42.6776 15.9475 42.6896 15.9617 42.6072 16.0105C42.3109 16.1875 37.8137 16.1528 37.4116 16.0573C37.3962 16.0026 37.3755 15.9396 37.3735 15.8829C37.3614 15.5263 37.9236 15.3765 38.1396 15.1633C38.4404 14.8665 38.5891 14.3165 38.6589 13.9069C38.8158 12.9865 38.766 11.972 38.7651 11.0395L38.7572 7.14326L36.9254 7.13549C36.8976 6.72891 36.898 6.32454 36.8997 5.91718C37.484 5.92358 38.0684 5.9229 38.6526 5.91518C38.5622 5.61758 38.4669 5.31878 38.421 5.01048C38.2961 4.17195 38.4783 3.34356 38.991 2.66192C39.6798 1.74614 40.7519 1.32186 41.8546 1.16718Z" fill="#0B0803"/>
        </symbol>

        <symbol id="icon-close" viewBox="0 0 12 12">
            <path  
            d="M10.192 0.344238L5.94897 4.58624L1.70697 0.344238L0.292969 1.75824L4.53497 6.00024L0.292969 10.2422L1.70697 11.6562L5.94897 7.41424L10.192 11.6562L11.606 10.2422L7.36397 6.00024L11.606 1.75824L10.192 0.344238Z" fill="#0B0803"/>
        </symbol>

    </defs>
</svg>