<svg aria-hidden="true" style="position: absolute; width: 0; height: 0; overflow: hidden;" version="1.1"
    xmlns="http://www.w3.org/2000/svg" xmlns:xlink="http://www.w3.org/1999/xlink">
    <defs>
        <symbol id="icon-cube" viewBox="0 0 29 32">
            <path
                d="M28.368 8.192l-0.224-0.4c-0.289-0.484-0.696-0.886-1.184-1.168l-10.736-6.192c-0.486-0.282-1.038-0.431-1.6-0.432h-0.464c-0.562 0.001-1.114 0.15-1.6 0.432l-10.736 6.208c-0.485 0.28-0.888 0.683-1.168 1.168l-0.224 0.4c-0.282 0.486-0.431 1.038-0.432 1.6v12.4c0.001 0.562 0.15 1.114 0.432 1.6l0.224 0.4c0.288 0.479 0.689 0.88 1.168 1.168l10.752 6.192c0.484 0.288 1.037 0.437 1.6 0.432h0.448c0.562-0.001 1.114-0.15 1.6-0.432l10.736-6.208c0.49-0.274 0.894-0.678 1.168-1.168l0.24-0.4c0.279-0.488 0.427-1.038 0.432-1.6v-12.4c-0.001-0.562-0.15-1.114-0.432-1.6zM14.16 3.2h0.464l9.376 5.408-9.6 5.536-9.6-5.536 9.36-5.408zM16 28l9.36-5.408 0.24-0.4v-10.816l-9.6 5.552v11.072z">
            </path>
        </symbol>
        <symbol id="icon-coffee" viewBox="0 0 32 32">
            <path
                d="M31.571 14.386c-0.812-8.302-8.211-14.367-16.511-13.533-8.269 0.83-14.307 8.196-13.498 16.467s8.158 14.328 16.432 13.542c8.304-0.79 14.388-8.174 13.577-16.476zM20.333 4.333c0.184-0 0.322 0.037 0.493 0.083l0.037 0.010c0.067 0.336-0 0.492-0.176 0.778-0.308 0.501-0.65 0.98-0.992 1.459-0.604 0.846-1.209 1.693-1.623 2.657-0.898 2.090-0.689 4.529-0.477 6.992 0.185 2.156 0.372 4.332-0.181 6.311-0.665 2.381-2.333 3.939-4.422 5.1-0.116 0.019-0.244 0.010-0.366 0-0.026-0.002-0.051-0.004-0.076-0.006-0.016-0.001-0.032-0.002-0.047-0.003l-0.020-0.038c-0.119-0.226-0.126-0.24-0.040-0.498 0.112-0.334 0.334-0.676 0.544-0.998 0.080-0.123 0.158-0.243 0.228-0.359 0.726-1.21 1.438-2.517 1.661-3.929 0.278-1.763 0.13-3.578-0.018-5.392-0.188-2.302-0.376-4.605 0.307-6.803 0.839-2.7 2.804-4.109 5.17-5.366z">
            </path>
        </symbol>
        <symbol id="icon-o" viewBox="0 0 32 32">
            <path
                d="M31.068 14.184c-0.941-8.059-8.237-13.83-16.296-12.891-8.063 0.938-13.838 8.237-12.896 16.3s8.243 13.835 16.305 12.891c8.059-0.944 13.828-8.241 12.887-16.3zM14.794 4.671c1.95-0.144 3.773 0.331 5.346 1.5 2.545 1.892 3.843 5.020 4.273 8.081 0.455 3.231 0.41 7.719-1.695 10.425-1.149 1.475-2.601 2.074-4.399 2.294-1.916 0.185-3.833-0.329-5.399-1.446-2.476-1.786-3.746-4.72-4.207-7.66-0.525-3.349-0.506-8.035 1.664-10.86 1.154-1.503 2.596-2.101 4.417-2.335z">
            </path>
        </symbol>
        <symbol id="icon-c" viewBox="0 0 28 32">
            <path
                d="M14.072 0.534c1.902-0.249 4.054-0.054 5.904 0.413 1.125 0.284 2.248 0.67 3.398 0.832 0.661 0.093 1.355 0.086 2.023 0.097 0.108 1.852 0.465 6.29 0.251 7.921-0.341 0.066-0.603 0.048-0.945 0.001-0.351-0.406-0.516-1.314-0.727-1.84-0.773-1.93-2.303-3.413-4.221-4.199-2.403-0.986-5.273-0.859-7.641 0.164-2.488 1.075-4.515 3.225-5.502 5.745-1.53 3.902-1.519 8.907 0.197 12.749 1.189 2.661 3.305 5.002 6.074 6.041 2.643 0.992 5.516 0.699 8.047-0.462 1.131-0.577 2.176-1.434 2.848-2.521 0.381-0.615 0.66-1.784 1.264-2.181l0.168 0.067c0.649 0.819 0.89 3.382 1.103 4.484-2.44 2.151-5.384 3.577-8.62 4.003-4.235 0.556-8.655-0.298-12.077-2.939-3.115-2.404-5.007-6.181-5.475-10.052-0.544-4.498 0.45-9.037 3.296-12.617 2.623-3.299 6.482-5.227 10.633-5.704z">
            </path>
        </symbol>
        <symbol id="icon-e" viewBox="0 0 30 32">
            <path
                d="M19.953 1.52c-1.663-0.414-3.675-0.637-5.38-0.426-3.978 0.391-7.38 1.925-9.965 5.044-2.864 3.495-4.223 7.983-3.783 12.479 0.396 3.833 2.159 7.644 5.217 10.069 3.212 2.549 7.751 3.267 11.737 2.795 3.539-0.418 6.677-1.947 8.871-4.804 1.004-1.306 1.733-2.781 2.308-4.319-0.070-0.067-0.141-0.135-0.211-0.205-0.339-0.334-0.689-0.678-1.145-0.816-0.040 0.018-0.075 0.033-0.106 0.046-0.139 0.058-0.195 0.082-0.31 0.257-1.893 2.787-4.062 4.631-7.45 5.265-2.641 0.494-5.266 0.039-7.482-1.515-1.763-1.237-3.154-3.063-3.968-5.050 4.052-2.402 8.456-4.834 13.117-5.789 0.923-0.189 1.863-0.295 2.801-0.401 0.986-0.111 1.969-0.222 2.924-0.429 0.641-0.139 1.101-0.269 1.319-0.948 0.545-1.704-0.315-4.489-1.174-5.957-1.57-2.687-4.328-4.553-7.321-5.297zM15.831 4.231c0.757 0.004 1.569 0.058 2.298 0.26 1.234 0.34 2.352 1.071 2.954 2.227 0.417 0.8 0.742 2.082 0.415 2.957-0.275 0.735-0.869 1.237-1.527 1.625-0.821 0.483-1.803 0.795-2.75 1.094-0.322 0.102-0.639 0.202-0.945 0.308-1.654 0.571-3.284 1.195-4.86 1.957-0.36 0.16-0.816 0.448-1.301 0.755-0.911 0.576-1.927 1.217-2.615 1.206-0.367-0.307-0.462-0.563-0.5-1.025-0.255-3.065 0.979-6.551 2.961-8.868 1.452-1.696 3.731-2.323 5.87-2.496z">
            </path>
        </symbol>
        <symbol id="icon-j" viewBox="0 0 26 32">
            <path
                d="M13.375 0.73c2.41-0.013 9.179-0.314 11.005 0.168 0.153 0.21 0.139 0.213 0.12 0.474-0.422 0.711-1.323 0.997-1.948 1.507-0.361 0.294-0.686 0.713-0.795 1.172-0.403 1.701-0.244 3.667-0.246 5.414l-0.048 7.377c-0.013 1.76 0.042 3.56-0.164 5.308-0.295 2.503-1.4 4.829-3.422 6.388-2.521 1.944-6.040 2.377-9.121 1.959-2.699-0.365-5.331-1.534-7.009-3.749-1.522-2.009-1.908-4.355-1.585-6.811 0.085-0.434 0.194-0.853 0.349-1.267 0.574-1.531 1.698-2.789 3.213-3.439 1.6-0.686 3.618-0.736 5.226-0.044 0.782 0.336 1.275 0.916 1.563 1.717 0.176 0.49 0.234 0.909 0.009 1.385-0.648 0.613-2.107-0.208-3.013 0.046-0.836 0.234-1.476 0.82-1.876 1.58-0.695 1.319-0.712 3.042-0.215 4.429 0.443 1.237 1.447 2.235 2.629 2.782 1.404 0.649 3.377 0.811 4.843 0.266 1.136-0.422 1.97-1.326 2.428-2.435 0.395-0.956 0.58-2.055 0.673-3.080 0.21-2.31 0.469-16.265-0.039-17.774-0.537-1.592-2.368-1.639-2.787-2.608 0-0.234 0.005-0.397 0.118-0.602 0.030-0.055 0.061-0.108 0.092-0.161z">
            </path>
        </symbol>
        <symbol id="icon-y" viewBox="0 0 29 32">
            <path
                d="M15.961 19.559c1.082-2.677 2.016-5.436 3.012-8.148 0.777-2.111 1.737-4.296 2.214-6.493 0.102-0.468 0.146-0.932 0.015-1.399-0.4-1.427-2.241-1.313-2.657-2.416 0.058-0.242 0.024-0.347 0.255-0.495 0.426-0.272 7.943-0.301 8.864-0.184 0.307 0.039 0.525 0.107 0.727 0.354 0.021 0.53-0.107 0.771-0.584 1.041-0.764 0.432-1.737 0.652-2.311 1.362-0.902 1.118-4.3 10.686-5.139 12.861l-2.802 7.27c-0.705 1.826-1.366 3.811-2.415 5.471-0.636 1.005-1.492 1.978-2.53 2.576-1.514 0.87-3.435 1.031-5.108 0.56-1.301-0.367-2.491-1.172-3.114-2.398-0.493-0.97-0.615-2.26-0.252-3.293 0.27-0.77 0.894-1.408 1.637-1.74 0.481-0.214 1.268-0.4 1.766-0.13 1.184 0.644 0.413 2.771 0.867 3.905 0.153 0.381 0.377 0.65 0.767 0.807 0.633 0.255 1.733-0.094 2.303-0.372 1.93-0.941 2.74-3.975 3.382-5.848-0.81 0.015-1.747 0.115-2.545-0.025-0.124-0.021-0.28-0.054-0.39-0.119-0.264-0.153-0.434-0.432-0.571-0.698-0.63-1.228-1.057-2.655-1.549-3.948l-3.063-8.060c-0.603-1.584-1.15-3.235-1.889-4.759-0.552-1.136-1.288-2.296-2.423-2.924-0.563-0.31-1.303-0.307-1.684-0.87-0.066-0.385 0.002-0.618 0.121-0.986 2.031-0.083 10.196-0.295 11.698 0.123 0.083 0.287 0.097 0.683-0.017 0.965-0.179 0.446-1.041 0.583-1.438 0.742-0.428 0.172-0.798 0.432-0.965 0.881-0.183 0.497 0.061 1.295 0.204 1.799 0.622 2.202 1.624 4.382 2.45 6.525 1.032 2.677 1.963 5.456 3.166 8.062z">
            </path>
        </symbol>
        <symbol id="icon-f" viewBox="0 0 18 32">
            <path
                d="M10.577 0.845c1.632-0.085 3.18 0.123 4.605 0.977 1.040 0.623 1.922 1.561 2.184 2.774 0.143 0.659 0.098 1.356-0.285 1.928-0.416 0.621-1.257 1.105-1.996 1.198-0.444 0.056-0.965-0.005-1.32-0.292-0.825-0.667-0.441-1.852-0.598-2.764-0.085-0.491-0.34-0.904-0.765-1.17-0.642-0.403-1.647-0.536-2.375-0.334-0.637 0.176-1.096 0.627-1.389 1.208-0.934 1.844-0.417 4.254 0.16 6.119 1.957 0.049 3.923 0.009 5.881 0.007 0.005 0.831-0.010 1.648-0.073 2.476-1.891-0.002-3.786-0.031-5.675 0.041-0.121 1.943-0.074 3.917-0.085 5.865-0.018 2.915-0.305 6.132 0.363 8.969 0.101 0.263 0.213 0.51 0.35 0.757 0.589 1.072 0.952 0.957 2 1.303 0.357 0.117 0.565 0.262 0.72 0.595-0.014 0.282-0.058 0.388-0.224 0.616-0.093 0.059-0.13 0.093-0.252 0.115-0.38 0.073-9.504 0.033-10.020-0.052-0.354-0.060-0.604-0.138-0.827-0.439 0.147-0.861 1.106-0.8 1.682-1.357 0.661-0.638 0.992-1.494 1.176-2.377 0.399-1.924 0.245-4.104 0.238-6.068l-0.037-7.952-3.732-0.014c-0.076-0.821-0.081-1.65-0.102-2.474l3.716-0.002c-0.182-0.556-0.364-1.133-0.444-1.714-0.237-1.717 0.162-3.462 1.218-4.854 1.403-1.849 3.66-2.794 5.908-3.085z">
            </path>
        </symbol>
        <symbol id="icon-map-link" viewBox="0 0 20 32">
            <path d="M4.202 30.062l14.048-14.048-14.048-14.048-3.481 3.481 10.567 10.567-10.567 10.567 3.481 3.481z">
            </path>
        </symbol>
        <symbol id="icon-burger" viewBox="0 0 43 32">
            <path
                d="M0 0h42.667v5.333h-42.667v-5.333zM0 13.333h42.667v5.333h-42.667v-5.333zM0 26.667h42.667v5.333h-42.667v-5.333z">
            </path>
        </symbol>
        <symbol id="icon-close" viewBox="0 0 32 32">
            <path
                d="M27.179 0.918l-11.315 11.312-11.312-11.312-3.771 3.771 11.312 11.312-11.312 11.312 3.771 3.771 11.312-11.312 11.315 11.312 3.771-3.771-11.312-11.312 11.312-11.312-3.771-3.771z">
            </path>
        </symbol>
        <symbol id="icon-twitter" viewBox="0 0 34 32">
            <path
                d="M26.684 0.457h5.195l-11.351 12.757 13.353 17.36h-10.455l-8.189-10.529-9.37 10.529h-5.199l12.141-13.646-12.81-16.472h10.721l7.402 9.624 8.561-9.624zM24.861 27.516h2.879l-18.583-24.162h-3.089l18.794 24.162z">
            </path>
        </symbol>
        <symbol id="icon-facebook" viewBox="0 0 30 32">
            <path
                d="M30.476 15.701c0-8.467-6.822-15.331-15.238-15.331s-15.238 6.864-15.238 15.331c0 7.652 5.572 13.995 12.857 15.145v-10.713h-3.869v-4.432h3.869v-3.378c0-3.842 2.275-5.965 5.756-5.965 1.667 0 3.411 0.299 3.411 0.299v3.773h-1.921c-1.893 0-2.483 1.182-2.483 2.394v2.876h4.226l-0.675 4.432h-3.551v10.713c7.285-1.15 12.857-7.493 12.857-15.145z">
            </path>
        </symbol>
        <symbol id="icon-favorite-outline" viewBox="0 0 34 32">
            <path stroke-linejoin="miter" stroke-linecap="butt" stroke-miterlimit="4" stroke-width="1.6842"
                d="M16.053 1.359c0.29-0.688 1.289-0.688 1.579 0l3.416 8.115c0.368 0.873 1.197 1.465 2.14 1.539l8.868 0.702c0.771 0.061 1.046 0.986 0.49 1.457l-6.758 5.719c-0.724 0.612-1.044 1.579-0.821 2.502l2.066 8.549c0.167 0.694-0.609 1.303-1.28 0.898h-0.002l-7.59-4.581c-0.81-0.489-1.828-0.489-2.638 0l-7.592 4.581c-0.671 0.405-1.447-0.204-1.28-0.898l2.066-8.549c0.223-0.923-0.097-1.889-0.821-2.502l-6.758-5.719c-0.556-0.472-0.281-1.396 0.49-1.457l8.868-0.702c0.943-0.075 1.772-0.666 2.14-1.539l3.416-8.115z">
            </path>
        </symbol>
        <symbol id="icon-favorite-filled" viewBox="0 0 34 32">
            <path
                d="M15.277 1.031c0.579-1.375 2.551-1.375 3.13 0l3.417 8.116c0.244 0.58 0.796 0.976 1.43 1.026l8.869 0.702c1.503 0.119 2.112 1.972 0.967 2.941l-6.757 5.718c-0.483 0.408-0.694 1.049-0.546 1.66l2.064 8.55c0.35 1.449-1.245 2.594-2.532 1.817l-7.593-4.582c-0.542-0.327-1.224-0.327-1.767 0l-7.593 4.582c-1.287 0.776-2.882-0.369-2.532-1.817l2.064-8.55c0.147-0.611-0.063-1.252-0.546-1.66l-6.757-5.718c-1.145-0.969-0.536-2.822 0.967-2.941l8.869-0.702c0.633-0.050 1.185-0.446 1.429-1.026l3.417-8.116z">
            </path>
        </symbol>
        <symbol id="icon-location" viewBox="0 0 26 32">
            <path
                d="M12.8 19.2c3.53 0 6.4-2.87 6.4-6.4s-2.87-6.4-6.4-6.4c-3.53 0-6.4 2.87-6.4 6.4s2.87 6.4 6.4 6.4zM12.8 9.6c1.765 0 3.2 1.435 3.2 3.2s-1.435 3.2-3.2 3.2c-1.765 0-3.2-1.435-3.2-3.2s1.435-3.2 3.2-3.2z">
            </path>
            <path
                d="M11.872 31.702c0.271 0.193 0.595 0.297 0.928 0.297s0.657-0.104 0.928-0.297c0.486-0.344 11.918-8.598 11.872-18.902 0-7.058-5.742-12.8-12.8-12.8s-12.8 5.742-12.8 12.792c-0.046 10.312 11.386 18.566 11.872 18.91zM12.8 3.2c5.294 0 9.6 4.306 9.6 9.608 0.034 7.101-7.021 13.477-9.6 15.568-2.578-2.093-9.634-8.47-9.6-15.576 0-5.294 4.306-9.6 9.6-9.6z">
            </path>
        </symbol>
        <symbol id="icon-phone" viewBox="0 0 32 32">
            <path
                d="M24.77 17.336c-0.156-0.157-0.342-0.281-0.546-0.365s-0.423-0.128-0.645-0.128c-0.221 0-0.44 0.044-0.645 0.128s-0.39 0.209-0.546 0.365l-2.685 2.685c-1.245-0.371-3.567-1.213-5.039-2.685s-2.314-3.795-2.685-5.039l2.685-2.685c0.157-0.156 0.281-0.342 0.365-0.546s0.128-0.423 0.128-0.645c0-0.221-0.044-0.44-0.128-0.645s-0.209-0.39-0.365-0.546l-6.737-6.737c-0.156-0.157-0.342-0.281-0.546-0.365s-0.423-0.128-0.645-0.128c-0.221 0-0.44 0.044-0.645 0.128s-0.39 0.209-0.546 0.365l-4.568 4.568c-0.64 0.64-1 1.519-0.987 2.417 0.039 2.398 0.674 10.729 7.239 17.294s14.895 7.198 17.295 7.239h0.047c0.889 0 1.73-0.35 2.366-0.987l4.568-4.568c0.157-0.156 0.281-0.342 0.365-0.546s0.128-0.423 0.128-0.645c0-0.221-0.044-0.44-0.128-0.645s-0.209-0.39-0.365-0.546l-6.737-6.739zM24.556 28.64c-2.102-0.035-9.293-0.6-14.944-6.252-5.669-5.669-6.218-12.886-6.252-14.946l3.377-3.377 4.355 4.355-2.178 2.178c-0.198 0.198-0.344 0.442-0.423 0.71s-0.092 0.552-0.035 0.826c0.040 0.194 1.029 4.787 3.825 7.582s7.389 3.784 7.582 3.825c0.274 0.059 0.558 0.048 0.826-0.032s0.512-0.226 0.71-0.425l2.179-2.178 4.355 4.355-3.379 3.377z">
            </path>
        </symbol>
        <symbol id="icon-email" viewBox="0 0 40 32">
            <path
                d="M36 0h-32c-2.206 0-4 1.794-4 4v24c0 2.206 1.794 4 4 4h32c2.206 0 4-1.794 4-4v-24c0-2.206-1.794-4-4-4zM36 4v1.022l-16 12.446-16-12.444v-1.024h32zM4 28v-17.912l14.772 11.49c0.35 0.275 0.783 0.425 1.228 0.425s0.878-0.15 1.228-0.425l14.772-11.49 0.004 17.912h-32.004z">
            </path>
        </symbol>
        <symbol id="icon-marker" viewBox="0 0 32 32">
            <path
                d="M16 24l1.6-3.2v-8.227c2.754-0.715 4.8-3.2 4.8-6.173 0-3.53-2.87-6.4-6.4-6.4s-6.4 2.87-6.4 6.4c0 2.973 2.046 5.458 4.8 6.173v8.227l1.6 3.2zM12.8 6.4c0-1.765 1.435-3.2 3.2-3.2s3.2 1.435 3.2 3.2c0 1.765-1.435 3.2-3.2 3.2s-3.2-1.435-3.2-3.2z">
            </path>
            <path
                d="M22.827 13.701l-0.853 3.085c4.146 1.146 6.826 3.349 6.826 5.614 0 3.027-5.256 6.4-12.8 6.4s-12.8-3.373-12.8-6.4c0-2.266 2.68-4.469 6.827-5.616l-0.853-3.085c-5.659 1.565-9.174 4.898-9.174 8.701 0 5.382 7.029 9.6 16 9.6s16-4.218 16-9.6c0-3.803-3.515-7.136-9.173-8.699z">
            </path>
        </symbol>
        <symbol id="icon-instagram" viewBox="0 0 32 32">
            <path
                d="M31.969 9.408c-0.075-1.7-0.35-2.869-0.744-3.882-0.406-1.075-1.031-2.038-1.85-2.838-0.8-0.813-1.769-1.444-2.832-1.844-1.019-0.394-2.182-0.669-3.882-0.744-1.713-0.081-2.257-0.1-6.601-0.1s-4.888 0.019-6.595 0.094c-1.7 0.075-2.869 0.35-3.882 0.744-1.075 0.406-2.038 1.031-2.838 1.85-0.813 0.8-1.444 1.769-1.844 2.832-0.394 1.019-0.669 2.182-0.744 3.882-0.081 1.713-0.1 2.257-0.1 6.601s0.019 4.888 0.094 6.595c0.075 1.7 0.35 2.869 0.744 3.882 0.406 1.075 1.038 2.038 1.85 2.838 0.8 0.813 1.769 1.444 2.832 1.844 1.019 0.394 2.182 0.669 3.882 0.744 1.706 0.075 2.25 0.094 6.595 0.094s4.888-0.019 6.595-0.094c1.7-0.075 2.869-0.35 3.882-0.744 2.151-0.831 3.851-2.532 4.682-4.682 0.394-1.019 0.669-2.182 0.744-3.882 0.075-1.707 0.094-2.25 0.094-6.595s-0.006-4.888-0.081-6.595zM29.087 22.473c-0.069 1.563-0.331 2.407-0.55 2.969-0.538 1.394-1.644 2.5-3.038 3.038-0.563 0.219-1.413 0.481-2.969 0.55-1.688 0.075-2.194 0.094-6.464 0.094s-4.782-0.019-6.464-0.094c-1.563-0.069-2.407-0.331-2.969-0.55-0.694-0.256-1.325-0.663-1.838-1.194-0.531-0.519-0.938-1.144-1.194-1.838-0.219-0.563-0.481-1.413-0.55-2.969-0.075-1.688-0.094-2.194-0.094-6.464s0.019-4.782 0.094-6.464c0.069-1.563 0.331-2.407 0.55-2.969 0.256-0.694 0.663-1.325 1.2-1.838 0.519-0.531 1.144-0.938 1.838-1.194 0.563-0.219 1.413-0.481 2.969-0.55 1.688-0.075 2.194-0.094 6.464-0.094 4.276 0 4.782 0.019 6.464 0.094 1.563 0.069 2.407 0.331 2.969 0.55 0.694 0.256 1.325 0.662 1.838 1.194 0.531 0.519 0.938 1.144 1.194 1.838 0.219 0.563 0.481 1.413 0.55 2.969 0.075 1.688 0.094 2.194 0.094 6.464s-0.019 4.77-0.094 6.458z">
            </path>
            <path
                d="M16.059 7.783c-4.538 0-8.22 3.682-8.22 8.22s3.682 8.22 8.22 8.22c4.538 0 8.22-3.682 8.22-8.22s-3.682-8.22-8.22-8.22zM16.059 21.335c-2.944 0-5.332-2.388-5.332-5.332s2.388-5.332 5.332-5.332c2.944 0 5.332 2.388 5.332 5.332s-2.388 5.332-5.332 5.332z">
            </path>
            <path
                d="M26.524 7.458c0 1.060-0.859 1.919-1.919 1.919s-1.919-0.859-1.919-1.919c0-1.060 0.859-1.919 1.919-1.919s1.919 0.859 1.919 1.919z">
            </path>
        </symbol>
        <symbol id="icon-subscribe" viewBox="0 0 35 32">
            <path d="M14.122 4.56l11.533 11.44-11.533 11.44 3.755 3.787 15.352-15.227-15.352-15.227-3.755 3.787z">
            </path>
            <path d="M4.544 0.773l-3.755 3.787 11.533 11.44-11.533 11.44 3.755 3.787 15.352-15.227-15.352-15.227z">
            </path>
        </symbol>
    </defs>
</svg>