<svg aria-hidden="true" style="position: absolute; width: 0; height: 0; overflow: hidden;" version="1.1"
    xmlns="http://www.w3.org/2000/svg" xmlns:xlink="http://www.w3.org/1999/xlink">
    <defs>
        <symbol id="icon-cube" viewBox="0 0 29 32">
            <path
                d="M28.368 8.192l-0.224-0.4c-0.289-0.484-0.696-0.886-1.184-1.168l-10.736-6.192c-0.486-0.282-1.038-0.431-1.6-0.432h-0.464c-0.562 0.001-1.114 0.15-1.6 0.432l-10.736 6.208c-0.485 0.28-0.888 0.683-1.168 1.168l-0.224 0.4c-0.282 0.486-0.431 1.038-0.432 1.6v12.4c0.001 0.562 0.15 1.114 0.432 1.6l0.224 0.4c0.288 0.479 0.689 0.88 1.168 1.168l10.752 6.192c0.484 0.288 1.037 0.437 1.6 0.432h0.448c0.562-0.001 1.114-0.15 1.6-0.432l10.736-6.208c0.49-0.274 0.894-0.678 1.168-1.168l0.24-0.4c0.279-0.488 0.427-1.038 0.432-1.6v-12.4c-0.001-0.562-0.15-1.114-0.432-1.6zM14.16 3.2h0.464l9.376 5.408-9.6 5.536-9.6-5.536 9.36-5.408zM16 28l9.36-5.408 0.24-0.4v-10.816l-9.6 5.552v11.072z">
            </path>
        </symbol>
        <symbol id="icon-coffee" viewBox="0 0 32 32">
            <path
                d="M31.571 14.386c-0.812-8.302-8.211-14.367-16.511-13.533-8.269 0.83-14.307 8.196-13.498 16.467s8.158 14.328 16.432 13.542c8.304-0.79 14.388-8.174 13.577-16.476zM20.333 4.333c0.184-0 0.322 0.037 0.493 0.083l0.037 0.010c0.067 0.336-0 0.492-0.176 0.778-0.308 0.501-0.65 0.98-0.992 1.459-0.604 0.846-1.209 1.693-1.623 2.657-0.898 2.090-0.689 4.529-0.477 6.992 0.185 2.156 0.372 4.332-0.181 6.311-0.665 2.381-2.333 3.939-4.422 5.1-0.116 0.019-0.244 0.010-0.366 0-0.026-0.002-0.051-0.004-0.076-0.006-0.016-0.001-0.032-0.002-0.047-0.003l-0.020-0.038c-0.119-0.226-0.126-0.24-0.040-0.498 0.112-0.334 0.334-0.676 0.544-0.998 0.080-0.123 0.158-0.243 0.228-0.359 0.726-1.21 1.438-2.517 1.661-3.929 0.278-1.763 0.13-3.578-0.018-5.392-0.188-2.302-0.376-4.605 0.307-6.803 0.839-2.7 2.804-4.109 5.17-5.366z">
            </path>
        </symbol>
        <symbol id="icon-o" viewBox="0 0 32 32">
            <path
                d="M31.068 14.184c-0.941-8.059-8.237-13.83-16.296-12.891-8.063 0.938-13.838 8.237-12.896 16.3s8.243 13.835 16.305 12.891c8.059-0.944 13.828-8.241 12.887-16.3zM14.794 4.671c1.95-0.144 3.773 0.331 5.346 1.5 2.545 1.892 3.843 5.020 4.273 8.081 0.455 3.231 0.41 7.719-1.695 10.425-1.149 1.475-2.601 2.074-4.399 2.294-1.916 0.185-3.833-0.329-5.399-1.446-2.476-1.786-3.746-4.72-4.207-7.66-0.525-3.349-0.506-8.035 1.664-10.86 1.154-1.503 2.596-2.101 4.417-2.335z">
            </path>
        </symbol>
        <symbol id="icon-c" viewBox="0 0 28 32">
            <path
                d="M14.072 0.534c1.902-0.249 4.054-0.054 5.904 0.413 1.125 0.284 2.248 0.67 3.398 0.832 0.661 0.093 1.355 0.086 2.023 0.097 0.108 1.852 0.465 6.29 0.251 7.921-0.341 0.066-0.603 0.048-0.945 0.001-0.351-0.406-0.516-1.314-0.727-1.84-0.773-1.93-2.303-3.413-4.221-4.199-2.403-0.986-5.273-0.859-7.641 0.164-2.488 1.075-4.515 3.225-5.502 5.745-1.53 3.902-1.519 8.907 0.197 12.749 1.189 2.661 3.305 5.002 6.074 6.041 2.643 0.992 5.516 0.699 8.047-0.462 1.131-0.577 2.176-1.434 2.848-2.521 0.381-0.615 0.66-1.784 1.264-2.181l0.168 0.067c0.649 0.819 0.89 3.382 1.103 4.484-2.44 2.151-5.384 3.577-8.62 4.003-4.235 0.556-8.655-0.298-12.077-2.939-3.115-2.404-5.007-6.181-5.475-10.052-0.544-4.498 0.45-9.037 3.296-12.617 2.623-3.299 6.482-5.227 10.633-5.704z">
            </path>
        </symbol>
        <symbol id="icon-e" viewBox="0 0 30 32">
            <path
                d="M19.953 1.52c-1.663-0.414-3.675-0.637-5.38-0.426-3.978 0.391-7.38 1.925-9.965 5.044-2.864 3.495-4.223 7.983-3.783 12.479 0.396 3.833 2.159 7.644 5.217 10.069 3.212 2.549 7.751 3.267 11.737 2.795 3.539-0.418 6.677-1.947 8.871-4.804 1.004-1.306 1.733-2.781 2.308-4.319-0.070-0.067-0.141-0.135-0.211-0.205-0.339-0.334-0.689-0.678-1.145-0.816-0.040 0.018-0.075 0.033-0.106 0.046-0.139 0.058-0.195 0.082-0.31 0.257-1.893 2.787-4.062 4.631-7.45 5.265-2.641 0.494-5.266 0.039-7.482-1.515-1.763-1.237-3.154-3.063-3.968-5.050 4.052-2.402 8.456-4.834 13.117-5.789 0.923-0.189 1.863-0.295 2.801-0.401 0.986-0.111 1.969-0.222 2.924-0.429 0.641-0.139 1.101-0.269 1.319-0.948 0.545-1.704-0.315-4.489-1.174-5.957-1.57-2.687-4.328-4.553-7.321-5.297zM15.831 4.231c0.757 0.004 1.569 0.058 2.298 0.26 1.234 0.34 2.352 1.071 2.954 2.227 0.417 0.8 0.742 2.082 0.415 2.957-0.275 0.735-0.869 1.237-1.527 1.625-0.821 0.483-1.803 0.795-2.75 1.094-0.322 0.102-0.639 0.202-0.945 0.308-1.654 0.571-3.284 1.195-4.86 1.957-0.36 0.16-0.816 0.448-1.301 0.755-0.911 0.576-1.927 1.217-2.615 1.206-0.367-0.307-0.462-0.563-0.5-1.025-0.255-3.065 0.979-6.551 2.961-8.868 1.452-1.696 3.731-2.323 5.87-2.496z">
            </path>
        </symbol>
        <symbol id="icon-j" viewBox="0 0 26 32">
            <path
                d="M13.375 0.73c2.41-0.013 9.179-0.314 11.005 0.168 0.153 0.21 0.139 0.213 0.12 0.474-0.422 0.711-1.323 0.997-1.948 1.507-0.361 0.294-0.686 0.713-0.795 1.172-0.403 1.701-0.244 3.667-0.246 5.414l-0.048 7.377c-0.013 1.76 0.042 3.56-0.164 5.308-0.295 2.503-1.4 4.829-3.422 6.388-2.521 1.944-6.040 2.377-9.121 1.959-2.699-0.365-5.331-1.534-7.009-3.749-1.522-2.009-1.908-4.355-1.585-6.811 0.085-0.434 0.194-0.853 0.349-1.267 0.574-1.531 1.698-2.789 3.213-3.439 1.6-0.686 3.618-0.736 5.226-0.044 0.782 0.336 1.275 0.916 1.563 1.717 0.176 0.49 0.234 0.909 0.009 1.385-0.648 0.613-2.107-0.208-3.013 0.046-0.836 0.234-1.476 0.82-1.876 1.58-0.695 1.319-0.712 3.042-0.215 4.429 0.443 1.237 1.447 2.235 2.629 2.782 1.404 0.649 3.377 0.811 4.843 0.266 1.136-0.422 1.97-1.326 2.428-2.435 0.395-0.956 0.58-2.055 0.673-3.080 0.21-2.31 0.469-16.265-0.039-17.774-0.537-1.592-2.368-1.639-2.787-2.608 0-0.234 0.005-0.397 0.118-0.602 0.030-0.055 0.061-0.108 0.092-0.161z">
            </path>
        </symbol>
        <symbol id="icon-y" viewBox="0 0 29 32">
            <path
                d="M15.961 19.559c1.082-2.677 2.016-5.436 3.012-8.148 0.777-2.111 1.737-4.296 2.214-6.493 0.102-0.468 0.146-0.932 0.015-1.399-0.4-1.427-2.241-1.313-2.657-2.416 0.058-0.242 0.024-0.347 0.255-0.495 0.426-0.272 7.943-0.301 8.864-0.184 0.307 0.039 0.525 0.107 0.727 0.354 0.021 0.53-0.107 0.771-0.584 1.041-0.764 0.432-1.737 0.652-2.311 1.362-0.902 1.118-4.3 10.686-5.139 12.861l-2.802 7.27c-0.705 1.826-1.366 3.811-2.415 5.471-0.636 1.005-1.492 1.978-2.53 2.576-1.514 0.87-3.435 1.031-5.108 0.56-1.301-0.367-2.491-1.172-3.114-2.398-0.493-0.97-0.615-2.26-0.252-3.293 0.27-0.77 0.894-1.408 1.637-1.74 0.481-0.214 1.268-0.4 1.766-0.13 1.184 0.644 0.413 2.771 0.867 3.905 0.153 0.381 0.377 0.65 0.767 0.807 0.633 0.255 1.733-0.094 2.303-0.372 1.93-0.941 2.74-3.975 3.382-5.848-0.81 0.015-1.747 0.115-2.545-0.025-0.124-0.021-0.28-0.054-0.39-0.119-0.264-0.153-0.434-0.432-0.571-0.698-0.63-1.228-1.057-2.655-1.549-3.948l-3.063-8.060c-0.603-1.584-1.15-3.235-1.889-4.759-0.552-1.136-1.288-2.296-2.423-2.924-0.563-0.31-1.303-0.307-1.684-0.87-0.066-0.385 0.002-0.618 0.121-0.986 2.031-0.083 10.196-0.295 11.698 0.123 0.083 0.287 0.097 0.683-0.017 0.965-0.179 0.446-1.041 0.583-1.438 0.742-0.428 0.172-0.798 0.432-0.965 0.881-0.183 0.497 0.061 1.295 0.204 1.799 0.622 2.202 1.624 4.382 2.45 6.525 1.032 2.677 1.963 5.456 3.166 8.062z">
            </path>
        </symbol>
        <symbol id="icon-f" viewBox="0 0 18 32">
            <path
                d="M10.577 0.845c1.632-0.085 3.18 0.123 4.605 0.977 1.040 0.623 1.922 1.561 2.184 2.774 0.143 0.659 0.098 1.356-0.285 1.928-0.416 0.621-1.257 1.105-1.996 1.198-0.444 0.056-0.965-0.005-1.32-0.292-0.825-0.667-0.441-1.852-0.598-2.764-0.085-0.491-0.34-0.904-0.765-1.17-0.642-0.403-1.647-0.536-2.375-0.334-0.637 0.176-1.096 0.627-1.389 1.208-0.934 1.844-0.417 4.254 0.16 6.119 1.957 0.049 3.923 0.009 5.881 0.007 0.005 0.831-0.010 1.648-0.073 2.476-1.891-0.002-3.786-0.031-5.675 0.041-0.121 1.943-0.074 3.917-0.085 5.865-0.018 2.915-0.305 6.132 0.363 8.969 0.101 0.263 0.213 0.51 0.35 0.757 0.589 1.072 0.952 0.957 2 1.303 0.357 0.117 0.565 0.262 0.72 0.595-0.014 0.282-0.058 0.388-0.224 0.616-0.093 0.059-0.13 0.093-0.252 0.115-0.38 0.073-9.504 0.033-10.020-0.052-0.354-0.060-0.604-0.138-0.827-0.439 0.147-0.861 1.106-0.8 1.682-1.357 0.661-0.638 0.992-1.494 1.176-2.377 0.399-1.924 0.245-4.104 0.238-6.068l-0.037-7.952-3.732-0.014c-0.076-0.821-0.081-1.65-0.102-2.474l3.716-0.002c-0.182-0.556-0.364-1.133-0.444-1.714-0.237-1.717 0.162-3.462 1.218-4.854 1.403-1.849 3.66-2.794 5.908-3.085z">
            </path>
        </symbol>
        <symbol id="icon-map-link" viewBox="0 0 20 32">
            <path d="M4.202 30.062l14.048-14.048-14.048-14.048-3.481 3.481 10.567 10.567-10.567 10.567 3.481 3.481z">
            </path>
        </symbol>
        <symbol id="icon-burger" viewBox="0 0 43 32">
            <path
                d="M0 0h42.667v5.333h-42.667v-5.333zM0 13.333h42.667v5.333h-42.667v-5.333zM0 26.667h42.667v5.333h-42.667v-5.333z">
            </path>
        </symbol>
        <symbol id="icon-close" viewBox="0 0 32 32">
            <path
                d="M27.179 0.918l-11.315 11.312-11.312-11.312-3.771 3.771 11.312 11.312-11.312 11.312 3.771 3.771 11.312-11.312 11.315 11.312 3.771-3.771-11.312-11.312 11.312-11.312-3.771-3.771z">
            </path>
        </symbol>
        <symbol id="icon-twitter" viewBox="0 0 34 32">
            <path
                d="M26.684 0.457h5.195l-11.351 12.757 13.353 17.36h-10.455l-8.189-10.529-9.37 10.529h-5.199l12.141-13.646-12.81-16.472h10.721l7.402 9.624 8.561-9.624zM24.861 27.516h2.879l-18.583-24.162h-3.089l18.794 24.162z">
            </path>
        </symbol>
        <symbol id="icon-facebook" viewBox="0 0 30 32">
            <path
                d="M30.476 15.701c0-8.467-6.822-15.331-15.238-15.331s-15.238 6.864-15.238 15.331c0 7.652 5.572 13.995 12.857 15.145v-10.713h-3.869v-4.432h3.869v-3.378c0-3.842 2.275-5.965 5.756-5.965 1.667 0 3.411 0.299 3.411 0.299v3.773h-1.921c-1.893 0-2.483 1.182-2.483 2.394v2.876h4.226l-0.675 4.432h-3.551v10.713c7.285-1.15 12.857-7.493 12.857-15.145z">
            </path>
        </symbol>
        <symbol id="icon-favorite-outline" viewBox="0 0 34 32">
            <path stroke-linejoin="miter" stroke-linecap="butt" stroke-miterlimit="4" stroke-width="1.6842"
                d="M16.053 1.359c0.29-0.688 1.289-0.688 1.579 0l3.416 8.115c0.368 0.873 1.197 1.465 2.14 1.539l8.868 0.702c0.771 0.061 1.046 0.986 0.49 1.457l-6.758 5.719c-0.724 0.612-1.044 1.579-0.821 2.502l2.066 8.549c0.167 0.694-0.609 1.303-1.28 0.898h-0.002l-7.59-4.581c-0.81-0.489-1.828-0.489-2.638 0l-7.592 4.581c-0.671 0.405-1.447-0.204-1.28-0.898l2.066-8.549c0.223-0.923-0.097-1.889-0.821-2.502l-6.758-5.719c-0.556-0.472-0.281-1.396 0.49-1.457l8.868-0.702c0.943-0.075 1.772-0.666 2.14-1.539l3.416-8.115z">
            </path>
        </symbol>
        <symbol id="icon-favorite-filled" viewBox="0 0 34 32">
            <path
                d="M15.277 1.031c0.579-1.375 2.551-1.375 3.13 0l3.417 8.116c0.244 0.58 0.796 0.976 1.43 1.026l8.869 0.702c1.503 0.119 2.112 1.972 0.967 2.941l-6.757 5.718c-0.483 0.408-0.694 1.049-0.546 1.66l2.064 8.55c0.35 1.449-1.245 2.594-2.532 1.817l-7.593-4.582c-0.542-0.327-1.224-0.327-1.767 0l-7.593 4.582c-1.287 0.776-2.882-0.369-2.532-1.817l2.064-8.55c0.147-0.611-0.063-1.252-0.546-1.66l-6.757-5.718c-1.145-0.969-0.536-2.822 0.967-2.941l8.869-0.702c0.633-0.050 1.185-0.446 1.429-1.026l3.417-8.116z">
            </path>
        </symbol>
        <symbol id="icon-location" viewBox="0 0 26 32">
            <path
                d="M12.8 19.2c3.53 0 6.4-2.87 6.4-6.4s-2.87-6.4-6.4-6.4c-3.53 0-6.4 2.87-6.4 6.4s2.87 6.4 6.4 6.4zM12.8 9.6c1.765 0 3.2 1.435 3.2 3.2s-1.435 3.2-3.2 3.2c-1.765 0-3.2-1.435-3.2-3.2s1.435-3.2 3.2-3.2z">
            </path>
            <path
                d="M11.872 31.702c0.271 0.193 0.595 0.297 0.928 0.297s0.657-0.104 0.928-0.297c0.486-0.344 11.918-8.598 11.872-18.902 0-7.058-5.742-12.8-12.8-12.8s-12.8 5.742-12.8 12.792c-0.046 10.312 11.386 18.566 11.872 18.91zM12.8 3.2c5.294 0 9.6 4.306 9.6 9.608 0.034 7.101-7.021 13.477-9.6 15.568-2.578-2.093-9.634-8.47-9.6-15.576 0-5.294 4.306-9.6 9.6-9.6z">
            </path>
        </symbol>
        <symbol id="icon-phone" viewBox="0 0 32 32">
            <path
                d="M24.77 17.336c-0.156-0.157-0.342-0.281-0.546-0.365s-0.423-0.128-0.645-0.128c-0.221 0-0.44 0.044-0.645 0.128s-0.39 0.209-0.546 0.365l-2.685 2.685c-1.245-0.371-3.567-1.213-5.039-2.685s-2.314-3.795-2.685-5.039l2.685-2.685c0.157-0.156 0.281-0.342 0.365-0.546s0.128-0.423 0.128-0.645c0-0.221-0.044-0.44-0.128-0.645s-0.209-0.39-0.365-0.546l-6.737-6.737c-0.156-0.157-0.342-0.281-0.546-0.365s-0.423-0.128-0.645-0.128c-0.221 0-0.44 0.044-0.645 0.128s-0.39 0.209-0.546 0.365l-4.568 4.568c-0.64 0.64-1 1.519-0.987 2.417 0.039 2.398 0.674 10.729 7.239 17.294s14.895 7.198 17.295 7.239h0.047c0.889 0 1.73-0.35 2.366-0.987l4.568-4.568c0.157-0.156 0.281-0.342 0.365-0.546s0.128-0.423 0.128-0.645c0-0.221-0.044-0.44-0.128-0.645s-0.209-0.39-0.365-0.546l-6.737-6.739zM24.556 28.64c-2.102-0.035-9.293-0.6-14.944-6.252-5.669-5.669-6.218-12.886-6.252-14.946l3.377-3.377 4.355 4.355-2.178 2.178c-0.198 0.198-0.344 0.442-0.423 0.71s-0.092 0.552-0.035 0.826c0.040 0.194 1.029 4.787 3.825 7.582s7.389 3.784 7.582 3.825c0.274 0.059 0.558 0.048 0.826-0.032s0.512-0.226 0.71-0.425l2.179-2.178 4.355 4.355-3.379 3.377z">
            </path>
        </symbol>
        <symbol id="icon-email" viewBox="0 0 40 32">
            <path
                d="M36 0h-32c-2.206 0-4 1.794-4 4v24c0 2.206 1.794 4 4 4h32c2.206 0 4-1.794 4-4v-24c0-2.206-1.794-4-4-4zM36 4v1.022l-16 12.446-16-12.444v-1.024h32zM4 28v-17.912l14.772 11.49c0.35 0.275 0.783 0.425 1.228 0.425s0.878-0.15 1.228-0.425l14.772-11.49 0.004 17.912h-32.004z">
            </path>
        </symbol>
        <symbol id="icon-marker" viewBox="0 0 32 32">
            <path
                d="M16 24l1.6-3.2v-8.227c2.754-0.715 4.8-3.2 4.8-6.173 0-3.53-2.87-6.4-6.4-6.4s-6.4 2.87-6.4 6.4c0 2.973 2.046 5.458 4.8 6.173v8.227l1.6 3.2zM12.8 6.4c0-1.765 1.435-3.2 3.2-3.2s3.2 1.435 3.2 3.2c0 1.765-1.435 3.2-3.2 3.2s-3.2-1.435-3.2-3.2z">
            </path>
            <path
                d="M22.827 13.701l-0.853 3.085c4.146 1.146 6.826 3.349 6.826 5.614 0 3.027-5.256 6.4-12.8 6.4s-12.8-3.373-12.8-6.4c0-2.266 2.68-4.469 6.827-5.616l-0.853-3.085c-5.659 1.565-9.174 4.898-9.174 8.701 0 5.382 7.029 9.6 16 9.6s16-4.218 16-9.6c0-3.803-3.515-7.136-9.173-8.699z">
            </path>
        </symbol>
        <symbol id="icon-instagram" viewBox="0 0 32 32">
            <path
                d="M31.969 9.408c-0.075-1.7-0.35-2.869-0.744-3.882-0.406-1.075-1.031-2.038-1.85-2.838-0.8-0.813-1.769-1.444-2.832-1.844-1.019-0.394-2.182-0.669-3.882-0.744-1.713-0.081-2.257-0.1-6.601-0.1s-4.888 0.019-6.595 0.094c-1.7 0.075-2.869 0.35-3.882 0.744-1.075 0.406-2.038 1.031-2.838 1.85-0.813 0.8-1.444 1.769-1.844 2.832-0.394 1.019-0.669 2.182-0.744 3.882-0.081 1.713-0.1 2.257-0.1 6.601s0.019 4.888 0.094 6.595c0.075 1.7 0.35 2.869 0.744 3.882 0.406 1.075 1.038 2.038 1.85 2.838 0.8 0.813 1.769 1.444 2.832 1.844 1.019 0.394 2.182 0.669 3.882 0.744 1.706 0.075 2.25 0.094 6.595 0.094s4.888-0.019 6.595-0.094c1.7-0.075 2.869-0.35 3.882-0.744 2.151-0.831 3.851-2.532 4.682-4.682 0.394-1.019 0.669-2.182 0.744-3.882 0.075-1.707 0.094-2.25 0.094-6.595s-0.006-4.888-0.081-6.595zM29.087 22.473c-0.069 1.563-0.331 2.407-0.55 2.969-0.538 1.394-1.644 2.5-3.038 3.038-0.563 0.219-1.413 0.481-2.969 0.55-1.688 0.075-2.194 0.094-6.464 0.094s-4.782-0.019-6.464-0.094c-1.563-0.069-2.407-0.331-2.969-0.55-0.694-0.256-1.325-0.663-1.838-1.194-0.531-0.519-0.938-1.144-1.194-1.838-0.219-0.563-0.481-1.413-0.55-2.969-0.075-1.688-0.094-2.194-0.094-6.464s0.019-4.782 0.094-6.464c0.069-1.563 0.331-2.407 0.55-2.969 0.256-0.694 0.663-1.325 1.2-1.838 0.519-0.531 1.144-0.938 1.838-1.194 0.563-0.219 1.413-0.481 2.969-0.55 1.688-0.075 2.194-0.094 6.464-0.094 4.276 0 4.782 0.019 6.464 0.094 1.563 0.069 2.407 0.331 2.969 0.55 0.694 0.256 1.325 0.662 1.838 1.194 0.531 0.519 0.938 1.144 1.194 1.838 0.219 0.563 0.481 1.413 0.55 2.969 0.075 1.688 0.094 2.194 0.094 6.464s-0.019 4.77-0.094 6.458z">
            </path>
            <path
                d="M16.059 7.783c-4.538 0-8.22 3.682-8.22 8.22s3.682 8.22 8.22 8.22c4.538 0 8.22-3.682 8.22-8.22s-3.682-8.22-8.22-8.22zM16.059 21.335c-2.944 0-5.332-2.388-5.332-5.332s2.388-5.332 5.332-5.332c2.944 0 5.332 2.388 5.332 5.332s-2.388 5.332-5.332 5.332z">
            </path>
            <path
                d="M26.524 7.458c0 1.060-0.859 1.919-1.919 1.919s-1.919-0.859-1.919-1.919c0-1.060 0.859-1.919 1.919-1.919s1.919 0.859 1.919 1.919z">
            </path>
        </symbol>
        <symbol id="icon-subscribe" viewBox="0 0 35 32">
            <path d="M14.122 4.56l11.533 11.44-11.533 11.44 3.755 3.787 15.352-15.227-15.352-15.227-3.755 3.787z">
            </path>
            <path d="M4.544 0.773l-3.755 3.787 11.533 11.44-11.533 11.44 3.755 3.787 15.352-15.227-15.352-15.227z">
            </path>
        </symbol>

        <symbol id="icon-company-logo" viewBox="0 0 64 36">
            <path d="M25.839 9.67263C25.5347 6.55934 22.76 4.28501 19.6476 4.59757C16.5467 4.90898 14.2826 7.67109 14.5858 10.7728C14.8891 13.8745 17.6452 16.1456 20.7478 15.851C23.8618 15.5547 26.1434 12.7859 25.839 9.67263ZM21.6246 5.90275C21.6937 5.90256 21.7452 5.91659 21.8094 5.93405L21.8233 5.93784C21.8484 6.06384 21.8233 6.1224 21.7574 6.22965C21.642 6.41739 21.5136 6.59715 21.3852 6.77692C21.1586 7.09425 20.9319 7.41166 20.7766 7.77319C20.4399 8.55706 20.5183 9.47138 20.5976 10.3953C20.667 11.2038 20.737 12.0198 20.5299 12.762C20.2806 13.6548 19.655 14.2389 18.8716 14.6745C18.8282 14.6817 18.7803 14.6781 18.7342 14.6745C18.7246 14.6738 18.715 14.673 18.7056 14.6724C18.6996 14.672 18.6937 14.6716 18.6879 14.6714L18.6803 14.657C18.6357 14.5721 18.633 14.567 18.6653 14.4704C18.7073 14.3451 18.7907 14.2168 18.8694 14.096C18.8994 14.0498 18.9287 14.0048 18.9548 13.9614C19.2271 13.5077 19.4941 13.0175 19.5776 12.488C19.6819 11.8268 19.6264 11.1464 19.5708 10.466C19.5003 9.60268 19.4299 8.73895 19.6861 7.91484C20.0008 6.90226 20.7377 6.37409 21.6246 5.90275Z"/>
            <path d="M39.1508 26.0968C38.7978 23.0746 36.0619 20.9107 33.0398 21.2626C30.0162 21.6145 27.8506 24.3515 28.2037 27.3752C28.5569 30.3989 31.2948 32.5634 34.3182 32.2094C37.3403 31.8554 39.5038 29.1189 39.1508 26.0968ZM33.0482 22.5294C33.7793 22.4753 34.4632 22.6534 35.053 23.092C36.0074 23.8016 36.4942 24.9744 36.6555 26.1225C36.8262 27.3342 36.8094 29.0171 36.0199 30.0318C35.5892 30.5849 35.0446 30.8097 34.3702 30.8921C33.6517 30.9614 32.9327 30.7687 32.3454 30.3501C31.4171 29.6804 30.9407 28.5801 30.7678 27.4776C30.5708 26.2218 30.5781 24.4644 31.3917 23.405C31.8246 22.8414 32.3654 22.6172 33.0482 22.5294Z"/>
            <path d="M7.75597 0.0532692C8.73651 -0.0753064 9.84637 0.0255393 10.8003 0.266146C11.3805 0.412474 11.9594 0.611482 12.5525 0.694941C12.8936 0.742894 13.2514 0.739058 13.5955 0.745098C13.6512 1.70001 13.8354 3.98821 13.7251 4.82931C13.5494 4.8634 13.4144 4.85384 13.2377 4.82979C13.0567 4.62054 12.9716 4.15219 12.8629 3.88086C12.464 2.88582 11.6754 2.12124 10.6866 1.71566C9.44746 1.2074 7.96795 1.27274 6.74658 1.80033C5.46388 2.35445 4.41878 3.46346 3.90942 4.76245C3.12042 6.77449 3.12593 9.35535 4.01115 11.3359C4.62446 12.7081 5.71551 13.9152 7.14319 14.4509C8.5061 14.9624 9.98723 14.8111 11.2927 14.2129C11.8756 13.9155 12.4146 13.4733 12.7614 12.9128C12.9576 12.5957 13.1018 11.993 13.413 11.7883L13.4996 11.8226C13.834 12.2451 13.9585 13.5663 14.0684 14.1346C12.8101 15.2436 11.2921 15.9789 9.62357 16.1984C7.43994 16.4852 5.16098 16.0445 3.39648 14.6829C1.79028 13.4435 0.814674 11.4959 0.57349 9.5001C0.293176 7.18086 0.805272 4.84024 2.27323 2.99428C3.6259 1.29333 5.61551 0.298865 7.75597 0.0532692Z"/>
            <path d="M48.7648 5.56206C48.1803 5.41652 47.4728 5.33795 46.8735 5.41226C45.4748 5.54967 44.2789 6.08892 43.3702 7.18564C42.3634 8.41425 41.8854 9.99208 42.0403 11.5729C42.1795 12.9205 42.7993 14.2604 43.8745 15.1128C45.0037 16.0089 46.5993 16.2616 48.0006 16.0956C49.2449 15.9485 50.3478 15.4112 51.1194 14.4067C51.4724 13.9477 51.7287 13.4289 51.9309 12.8885C51.9061 12.8651 51.8815 12.8409 51.8566 12.8165C51.7374 12.6992 51.6144 12.5782 51.454 12.5295C51.4398 12.536 51.4276 12.5411 51.4168 12.5457C51.368 12.5662 51.3484 12.5745 51.308 12.6359C50.6425 13.6156 49.8799 14.2641 48.6887 14.4868C47.7601 14.6605 46.8372 14.5007 46.0583 13.9541C45.4386 13.5192 44.9496 12.8773 44.6633 12.1787C46.0878 11.3341 47.6361 10.4792 49.2748 10.1436C49.5992 10.0771 49.9299 10.0398 50.2596 10.0026C50.6063 9.96353 50.9518 9.92456 51.2875 9.85196C51.5128 9.80327 51.6746 9.75746 51.7513 9.51869C51.943 8.91957 51.6405 7.94071 51.3384 7.42441C50.7864 6.47963 49.8169 5.82383 48.7648 5.56206ZM47.3157 6.5153C47.582 6.51687 47.8672 6.53573 48.1235 6.60653C48.5574 6.72618 48.9503 6.98322 49.1619 7.38959C49.3085 7.6708 49.423 8.12165 49.3079 8.42933C49.2113 8.68763 49.0023 8.86416 48.7711 9.00072C48.4827 9.17071 48.1372 9.28006 47.8045 9.38535C47.6913 9.42116 47.5797 9.4565 47.4723 9.4936C46.8908 9.69444 46.3178 9.91357 45.7637 10.1816C45.637 10.238 45.4769 10.3391 45.3063 10.4469C44.9859 10.6492 44.6287 10.8748 44.3871 10.8709C44.2579 10.7628 44.2248 10.673 44.2112 10.5106C44.1213 9.43314 44.5552 8.20752 45.2521 7.39295C45.7626 6.79671 46.5637 6.57628 47.3157 6.5153Z"/>
            <path d="M59.2405 5.4593C58.8266 5.40258 58.4075 5.38677 57.9905 5.41209C56.5713 5.52784 55.3712 6.04551 54.4426 7.15037C53.421 8.37389 52.9305 9.95498 53.0801 11.5421C53.2051 12.8565 53.8191 14.2009 54.8544 15.045C55.9689 15.9539 57.6318 16.2648 59.0346 16.1057C60.2831 15.9644 61.405 15.3777 62.1844 14.3866C62.5431 13.9266 62.8242 13.4107 63.0158 12.8594C62.9916 12.8384 62.9663 12.8154 62.9401 12.7915C62.8102 12.673 62.6574 12.5337 62.4948 12.5208C61.8267 13.527 61.0268 14.235 59.8146 14.4794C58.9012 14.6637 58.0146 14.5292 57.2305 14.0088C56.5577 13.5621 56.0682 12.9115 55.7194 12.1908C57.2594 11.1431 59.1539 10.3406 60.9848 10.0019C61.2119 9.95983 61.4426 9.942 61.6732 9.92418C61.8641 9.90943 62.0549 9.89468 62.2437 9.86622C62.4896 9.82914 62.7391 9.77289 62.7942 9.49189C62.9492 8.69943 62.6366 7.74619 62.1687 7.10904C61.4628 6.14777 60.4055 5.62139 59.2405 5.4593ZM57.8881 6.55388C58.3655 6.51606 58.8303 6.49253 59.2904 6.66086C59.7316 6.82216 60.0872 7.1404 60.2789 7.57166C60.4055 7.85555 60.4606 8.17342 60.3408 8.46922C60.2726 8.63619 60.1476 8.78788 60.0026 8.89397C59.6557 9.14739 58.799 9.44641 58.0538 9.70653C57.6865 9.83474 57.3463 9.95349 57.1075 10.0527C56.7245 10.2234 56.3554 10.4306 55.987 10.6373C55.7826 10.752 55.5784 10.8666 55.3722 10.9748C55.1994 9.91948 55.3076 8.84392 55.8822 7.91884C56.357 7.15521 57.0261 6.75131 57.8881 6.55388Z"/>
            <path d="M22.52 18.1199C23.6496 18.1136 26.8228 17.9728 27.6788 18.1987C27.7505 18.2969 27.7438 18.2985 27.735 18.4208C27.5371 18.7544 27.1148 18.8883 26.8219 19.1273C26.6529 19.2649 26.5002 19.4613 26.4492 19.6767C26.2602 20.474 26.3347 21.3957 26.3341 22.2146L26.3117 25.6727C26.3058 26.4978 26.3315 27.3413 26.2348 28.1607C26.0965 29.334 25.5786 30.4244 24.6306 31.155C23.4489 32.0662 21.7993 32.269 20.355 32.0731C19.09 31.9018 17.8559 31.354 17.0694 30.3157C16.3558 29.3739 16.1751 28.2741 16.3264 27.1228C16.3664 26.9195 16.4174 26.7231 16.4903 26.5288C16.7594 25.8113 17.286 25.2215 17.9962 24.9169C18.7464 24.5954 19.6923 24.5718 20.446 24.8964C20.8128 25.0539 21.0439 25.3255 21.1787 25.701C21.2612 25.9305 21.2883 26.127 21.1829 26.3502C20.879 26.6375 20.1952 26.2525 19.7704 26.3717C19.3783 26.4815 19.0786 26.7562 18.8909 27.1123C18.5651 27.7305 18.5573 28.5383 18.7903 29.1885C18.9979 29.7684 19.4683 30.2364 20.0226 30.4927C20.6805 30.7968 21.6055 30.8729 22.2929 30.6171C22.8253 30.4191 23.2164 29.9958 23.4311 29.4758C23.6162 29.0278 23.7029 28.5126 23.7465 28.032C23.8447 26.949 23.9665 20.4078 23.728 19.7003C23.4763 18.954 22.6182 18.9319 22.4215 18.4776C22.4216 18.3678 22.4241 18.2916 22.477 18.1955C22.4909 18.1698 22.5057 18.1451 22.52 18.1199Z"/>
            <path d="M45.8574 30.238C46.339 29.0457 46.755 27.8172 47.1988 26.6097C47.5449 25.6696 47.9724 24.6969 48.1846 23.7184C48.2298 23.5098 48.2498 23.3034 48.1915 23.0954C48.0134 22.4599 47.1935 22.5109 47.0081 22.0198C47.0339 21.9121 47.0186 21.8654 47.1216 21.7992C47.3112 21.6779 50.6584 21.6652 51.0687 21.7172C51.2052 21.7346 51.3024 21.765 51.3922 21.8748C51.4016 22.1106 51.3444 22.2183 51.1322 22.3386C50.7919 22.5308 50.3585 22.629 50.1033 22.9452C49.7015 23.4431 48.1883 27.7038 47.8149 28.6723L46.5669 31.9098C46.2528 32.7228 45.9587 33.6068 45.4913 34.3463C45.2082 34.7938 44.8269 35.2271 44.3647 35.4934C43.6903 35.881 42.8352 35.9525 42.0899 35.7429C41.5106 35.5796 40.9806 35.2208 40.7033 34.6751C40.4838 34.2434 40.4297 33.6688 40.5909 33.2087C40.7112 32.8657 40.989 32.5816 41.3199 32.434C41.5342 32.3389 41.8845 32.2559 42.1062 32.3762C42.6335 32.663 42.29 33.61 42.4922 34.1152C42.5605 34.2849 42.6603 34.4046 42.8336 34.4745C43.1157 34.5879 43.6052 34.4325 43.8594 34.309C44.7187 33.8899 45.0795 32.539 45.3652 31.705C45.0044 31.7118 44.5873 31.7559 44.2318 31.6939C44.1766 31.6845 44.1073 31.6698 44.0579 31.6409C43.9403 31.5726 43.8646 31.4486 43.8037 31.3299C43.5232 30.7832 43.3331 30.1477 43.1141 29.572L41.7501 25.9826C41.4817 25.2772 41.238 24.5419 40.9087 23.8633C40.6629 23.3575 40.3351 22.8407 39.8298 22.5613C39.5793 22.4232 39.2495 22.4247 39.0798 22.1737C39.0504 22.0024 39.0809 21.8984 39.1339 21.7346C40.0384 21.6978 43.6745 21.6033 44.3431 21.7892C44.3799 21.9168 44.3862 22.0933 44.3358 22.2188C44.2559 22.4174 43.872 22.4783 43.6955 22.5492C43.5049 22.6259 43.3399 22.7414 43.2659 22.9415C43.1845 23.1627 43.2932 23.5182 43.3567 23.7425C43.6335 24.7231 44.08 25.6937 44.4476 26.6481C44.9072 27.8403 45.3216 29.0778 45.8574 30.238Z"/>
            <path d="M39.4562 0.943689C40.2592 0.901828 41.0213 1.00441 41.7225 1.42469C42.2346 1.73143 42.6684 2.19305 42.7976 2.79023C42.868 3.1144 42.846 3.45769 42.6574 3.73926C42.4526 4.045 42.0387 4.28329 41.6752 4.32883C41.4567 4.35614 41.2004 4.32636 41.0255 4.18502C40.6195 3.85697 40.8086 3.27349 40.7314 2.82463C40.6894 2.58303 40.5639 2.37971 40.3548 2.24877C40.0386 2.0504 39.5444 1.98485 39.1857 2.08438C38.8721 2.17125 38.6463 2.393 38.5018 2.67888C38.0422 3.58642 38.2965 4.77259 38.5806 5.69038C39.5439 5.71427 40.5113 5.69484 41.4751 5.69395C41.4778 6.10284 41.4704 6.5049 41.4394 6.91268C40.5087 6.91168 39.5759 6.89756 38.6463 6.93306C38.5869 7.88939 38.61 8.86107 38.6042 9.8196C38.5953 11.2542 38.454 12.8379 38.7828 14.2338C38.8327 14.3631 38.8879 14.4849 38.9551 14.6066C39.245 15.1342 39.4236 15.0777 39.9394 15.2477C40.1153 15.3054 40.2172 15.3769 40.2939 15.5407C40.2871 15.6794 40.2655 15.7319 40.1836 15.8438C40.1379 15.8727 40.1195 15.8895 40.0596 15.9005C39.8727 15.9362 35.382 15.9168 35.1278 15.8748C34.9534 15.8454 34.8305 15.807 34.7207 15.6589C34.7932 15.2351 35.2648 15.265 35.5485 14.9908C35.8736 14.6768 36.0369 14.2557 36.1273 13.8207C36.3237 12.8738 36.2481 11.801 36.2444 10.8341L36.226 6.9203L34.3893 6.91347C34.352 6.50926 34.3494 6.10121 34.3389 5.69558L36.1677 5.69463C36.0779 5.42104 35.9886 5.13684 35.9492 4.85085C35.8326 4.00571 36.0291 3.14681 36.5485 2.46202C37.2392 1.55175 38.35 1.08671 39.4562 0.943689Z"/>
            <path d="M31.8544 0.945043C32.5944 0.882751 33.3051 0.936692 33.969 1.30025C34.4994 1.59081 34.9527 2.07008 35.1155 2.66322C35.2164 3.03077 35.2274 3.49639 35.0194 3.83127C34.8724 4.06841 34.6265 4.20718 34.3566 4.25776C34.1108 4.30387 33.7857 4.30329 33.5803 4.13853C33.1916 3.8266 33.4516 3.22684 33.365 2.8137C33.313 2.5649 33.1123 2.35386 32.8943 2.23453C32.5514 2.04645 32.0571 2.0236 31.6862 2.13515C31.3782 2.22775 31.1456 2.42918 31.0043 2.71768C30.5947 3.5539 30.9054 4.83508 31.1864 5.66725C32.1086 5.72193 33.0514 5.67944 33.9768 5.68422C33.9999 6.09684 33.9789 6.5011 33.9543 6.91325C33.0151 6.91115 32.0755 6.91451 31.1363 6.92323C31.0931 8.09758 31.0757 9.27272 31.0842 10.4479C31.0809 11.6585 30.9604 13.0185 31.3155 14.1862C31.7056 15.041 32.5157 15.1852 32.7068 15.6418C32.6774 15.7253 32.6895 15.7395 32.607 15.7884C32.3108 15.9654 27.8136 15.9307 27.4115 15.8351C27.3961 15.7805 27.3754 15.7175 27.3734 15.6607C27.3613 15.3041 27.9235 15.1544 28.1395 14.9412C28.4403 14.6444 28.589 14.0944 28.6588 13.6848C28.8157 12.7644 28.7659 11.7499 28.765 10.8174L28.757 6.92113L26.9252 6.91335C26.8975 6.50678 26.8978 6.1024 26.8996 5.69504C27.4839 5.70145 28.0682 5.70076 28.6525 5.69304C28.5621 5.39545 28.4667 5.09665 28.4208 4.78834C28.2959 3.94981 28.4782 3.12142 28.9909 2.43979C29.6796 1.524 30.7517 1.09972 31.8544 0.945043Z"/>
        </symbol>
    </defs>
</svg>